<svg id="图层_1" data-name="图层 1" xmlns="http://www.w3.org/2000/svg" viewBox="0 0 850.39 651.97"><defs><style>.cls-1{fill:#ffe804;}.cls-2{fill:#1a1a1b;}</style></defs><title>LOGO DODO</title><rect class="cls-1" y="0.44" width="850.39" height="651.09"/><path class="cls-2" d="M633.31,421.09c-37.75,0-67.21,28.58-67.21,64.89s29.46,64.87,67.21,64.87,67.21-28.58,67.21-64.87S671,421.09,633.31,421.09Zm0,101.37c-20.14,0-35.41-15.65-35.41-36.57s15.27-36.59,35.41-36.59,35.41,15.64,35.41,36.59-15.29,36.67-35.41,36.67Z"/><path class="cls-2" d="M606,328.13A177.86,177.86,0,0,0,467,169.39,59.93,59.93,0,0,0,471.6,165c13.56-13.56,18.37-30.73,10.76-38.34-6.85-6.85-21.39-3.63-34.14,6.9-2.44-18.83-11.85-32.92-23.17-32.92s-20.78,14.09-23.17,32.92c-12.73-10.53-27.26-13.75-34.14-6.9-7.61,7.61-2.8,24.78,10.75,38.34a62.37,62.37,0,0,0,4.88,4.31A178.05,178.05,0,0,0,244.37,328l-2.93,35h45.85l2.63-31A132.31,132.31,0,0,1,421.61,210.9h6.83A132.3,132.3,0,0,1,560.25,332l2.64,31h45.87Z"/><path class="cls-2" d="M380.4,328.1c9.08,0,16.44-13.1,16.44-29.26s-7.36-29.27-16.44-29.27S364,282.68,364,298.84,371.32,328.1,380.4,328.1Z"/><path class="cls-2" d="M470,328.1c9.07,0,16.43-13.1,16.43-29.26s-7.36-29.27-16.43-29.27-16.44,13.11-16.44,29.27S460.92,328.1,470,328.1Z"/><path class="cls-2" d="M200.91,421.26h-51v130h51c37.21,0,66.5-28.63,66.5-64.67C267.41,450.06,238.12,421.26,200.91,421.26Zm-.71,101.81H180.69V449.5H200.2c19.76,0,35.22,16.34,35.22,37.14C235.42,507.08,220,523.07,200.2,523.07Z"/><path class="cls-2" d="M350,421.09c-37.72,0-67.21,28.58-67.21,64.89s29.49,64.87,67.21,64.87S417.2,522.27,417.2,486,387.76,421.09,350,421.09Zm0,101.37c-20.12,0-35.38-15.65-35.38-36.57S329.84,449.3,350,449.3s35.41,15.64,35.41,36.59S370.11,522.56,350,522.56Z"/><path class="cls-2" d="M484.26,421.26h-51v130h51c37.19,0,66.48-28.63,66.48-64.67C550.74,450.06,521.45,421.26,484.26,421.26Zm-.73,101.81H464V449.5h19.51c19.78,0,35.24,16.34,35.24,37.14C518.77,507.08,503.31,523.07,483.53,523.07Z"/></svg>