<svg xmlns="http://www.w3.org/2000/svg" width="24" height="24" viewBox="0 0 24 24" fill="none"><script xmlns="" id="argent-x-extension" data-extension-id="dlcobpjiigpikoobohmabehhmhfoodbb"/>
<rect width="24" height="24" rx="12" fill="#F6F7FC"/>
<path fill-rule="evenodd" clip-rule="evenodd" d="M16.5063 10.7072C16.5063 13.2396 14.4569 15.2926 11.9289 15.2926C9.40092 15.2926 7.35156 13.2396 7.35156 10.7072C7.35156 6.82242 11.8158 2 11.9289 2C12.0421 2 16.5063 6.82242 16.5063 10.7072ZM14.6543 10.7076C14.6543 12.2157 13.4339 13.4382 11.9284 13.4382C10.423 13.4382 9.20256 12.2157 9.20256 10.7076C9.20256 9.21358 10.4002 7.99982 11.8862 7.97724V10.7917C11.8862 10.7917 13.613 10.0988 14.4566 9.68473C14.5841 10.0006 14.6543 10.3459 14.6543 10.7076Z" fill="url(#paint0_linear_3392_4188)"/>
<path d="M10.9005 18.0011L18.3143 17.2061C18.4006 18.0177 18.3802 18.8393 18.2528 19.6462L10.87 19.188C10.9323 18.7947 10.9429 18.3958 10.9005 18.0011Z" fill="url(#paint1_linear_3392_4188)"/>
<path d="M12.8447 15.8315L5.53429 17.3013C5.69503 18.1014 5.96056 18.879 6.32379 19.6105L13.2292 16.9545C13.052 16.5981 12.9225 16.2207 12.8447 15.8315Z" fill="url(#paint2_linear_3392_4188)"/>
<defs>
<linearGradient id="paint0_linear_3392_4188" x1="11.8755" y1="2.27572" x2="11.9787" y2="15.214" gradientUnits="userSpaceOnUse">
<stop stop-color="#FF05FF"/>
<stop offset="0.56" stop-color="#8323FF"/>
<stop offset="0.76" stop-color="#8F00FF"/>
<stop offset="0.985" stop-color="#4E68FF"/>
</linearGradient>
<linearGradient id="paint1_linear_3392_4188" x1="19.8351" y1="16.9999" x2="12.3325" y2="19.1329" gradientUnits="userSpaceOnUse">
<stop stop-color="#DFB6FF"/>
<stop offset="0.49109" stop-color="#8F00FF"/>
<stop offset="0.995" stop-color="#5263FF"/>
</linearGradient>
<linearGradient id="paint2_linear_3392_4188" x1="12.3362" y1="16.9996" x2="4.12331" y2="17.7282" gradientUnits="userSpaceOnUse">
<stop offset="0.015" stop-color="#5066FF"/>
<stop offset="0.538411" stop-color="#8F00FF"/>
<stop offset="1" stop-color="#DFB6FF"/>
</linearGradient>
</defs>
</svg>