<svg width="158" height="40" viewBox="0 0 158 40" fill="none" xmlns="http://www.w3.org/2000/svg">
<path d="M20.2662 40L20.2689 33.1936C19.5695 33.1936 18.8648 33.1389 18.1749 33.0308L17.0982 39.7544C18.1425 39.9173 19.2084 40 20.2675 40H20.2662ZM23.4342 39.7571C24.4812 39.5943 25.5214 39.3501 26.5278 39.0284L24.4041 32.5531C23.7413 32.7652 23.0541 32.9267 22.3629 33.0335L23.4342 39.7571ZM14.0032 39.0244L16.1324 32.5504C15.4682 32.3382 14.8175 32.0713 14.1966 31.759L11.0611 37.822C12.0039 38.2971 12.9941 38.7015 14.0032 39.0244ZM29.4686 37.83C30.4128 37.3562 31.3258 36.8037 32.1834 36.1884L28.124 30.6846C27.5599 31.0904 26.9593 31.4534 26.3384 31.7643L29.4686 37.83ZM8.34759 36.1778L12.4111 30.6766C11.8497 30.2736 11.3141 29.8198 10.8163 29.33L5.93438 34.1399L5.93844 34.1439C6.68784 34.8832 7.4981 35.5679 8.34759 36.1778ZM34.5642 34.1852L34.6061 34.1425C35.3528 33.4058 36.0454 32.6078 36.6649 31.771L31.0904 27.7606C30.6819 28.3131 30.2234 28.8416 29.7283 29.3314L29.6593 29.4008L32.0049 31.5855L34.5642 34.1852ZM3.87017 31.7576L9.44733 27.7512C9.03611 27.1947 8.66818 26.6022 8.35165 25.9896L2.20501 29.0791C2.68521 30.0093 3.24523 30.9102 3.87017 31.7563V31.7576ZM38.3328 29.0925C38.8143 28.1623 39.2242 27.1854 39.5529 26.1898L32.991 24.0878C32.7759 24.7431 32.5054 25.385 32.1888 25.9976L38.3328 29.0925ZM0.988931 26.1751L7.55221 24.0785C7.33713 23.4245 7.17345 22.7466 7.06389 22.0646L0.249007 23.1243C0.414036 24.1572 0.662932 25.1835 0.988931 26.1764V26.1751ZM40.2942 23.1389C40.4592 22.1086 40.5431 21.057 40.5444 20.0133L33.6457 20.0093C33.6457 20.6993 33.5902 21.3946 33.4807 22.0766L40.2942 23.1389ZM6.90021 19.9987C6.90021 19.3087 6.95567 18.612 7.06389 17.9314L0.249007 16.8717C0.0839781 17.902 0.00146417 18.9537 0.000111478 19.9973H6.89886L6.90021 19.9987ZM33.4834 17.9421L40.2982 16.8864C40.1346 15.8535 39.8857 14.8272 39.561 13.8342L32.9964 15.9269C33.2115 16.5821 33.3752 17.2588 33.4834 17.9407V17.9421ZM7.55221 15.9189C7.76729 15.2636 8.03783 14.6203 8.353 14.0077L2.20636 10.9169C1.72615 11.8471 1.31628 12.824 0.988931 13.8196L7.55085 15.9189H7.55221ZM32.197 14.0171L38.3463 10.9315C37.8661 10 37.3061 9.09916 36.6825 8.25304L31.1026 12.2568C31.5125 12.8133 31.8804 13.4058 32.197 14.0184V14.0171ZM9.45004 12.2461C9.85991 11.6909 10.3198 11.1597 10.8176 10.67L10.8311 10.6566L5.95332 5.84412L5.93979 5.85747C5.1904 6.59682 4.49512 7.39891 3.87423 8.23836L9.45004 12.2461ZM29.7526 10.694L31.2257 9.21126L34.6169 5.86681L34.6061 5.85613C33.8608 5.12078 33.0532 4.43881 32.2064 3.82891L28.1402 9.32737C28.7002 9.73042 29.2346 10.1815 29.7283 10.67L29.7526 10.694V10.694ZM12.4273 9.31269C12.9914 8.90831 13.592 8.54531 14.2129 8.23435L11.0868 2.16736C10.1426 2.64113 9.22955 3.19231 8.37194 3.80755L12.4273 9.31269ZM26.356 8.24503L29.4956 2.18471C28.5528 1.7096 27.564 1.30388 26.5549 0.980916L24.4217 7.45362C25.0858 7.66716 25.7365 7.93274 26.3574 8.24636L26.356 8.24503ZM16.1499 7.44562C16.8141 7.23475 17.5013 7.07327 18.1912 6.9665L17.1239 0.241559C16.0782 0.403043 15.0367 0.647271 14.0303 0.968904L16.1499 7.44562V7.44562ZM22.3804 6.97051L23.4599 0.246897C22.4156 0.0840785 21.3497 0 20.2919 0L20.2851 6.80635C20.9845 6.80635 21.6892 6.86241 22.3804 6.97051V6.97051Z" fill="#65B3AE"/>
<path d="M20.2702 33.494V26.6533C19.6875 26.6533 19.1061 26.5782 18.5439 26.432L16.7437 33.0406C17.8928 33.3411 19.0788 33.494 20.2702 33.494ZM23.7968 33.0406C24.9499 32.7388 26.0593 32.2895 27.0908 31.7047L23.5998 25.7815C23.0977 26.0658 22.5588 26.2844 21.9979 26.4306L23.7968 33.0406ZM13.4483 31.7033L16.9407 25.7815C16.44 25.4971 15.9763 25.147 15.5604 24.7406L15.4961 24.6789L13.2924 26.9538L10.588 29.5385L10.6276 29.576C11.473 30.4049 12.4224 31.1199 13.4497 31.7033H13.4483ZM29.9128 29.5787H29.9142C30.7582 28.7484 31.4873 27.8189 32.081 26.8129L26.0429 23.3872C25.7529 23.8781 25.3959 24.3328 24.9814 24.7393L29.9128 29.5787ZM8.45126 26.7982L14.4948 23.3805C14.2048 22.8883 13.9832 22.3598 13.8341 21.8085L7.09153 23.567C7.39794 24.6977 7.8562 25.7855 8.45126 26.7982ZM33.4462 23.5844C33.7526 22.4577 33.9085 21.2948 33.9099 20.1265L26.9334 20.1238C26.9334 20.6966 26.8568 21.2666 26.7064 21.8179L33.4462 23.5844V23.5844ZM13.6097 20.1158C13.6097 19.543 13.6863 18.973 13.8382 18.4217L7.09974 16.6512C6.79195 17.7779 6.63464 18.9408 6.63464 20.1091L13.6111 20.1158H13.6097ZM26.7077 18.4298L33.4489 16.6686C33.1411 15.5379 32.6829 14.4501 32.0878 13.4388L26.0456 16.8591C26.3357 17.3513 26.5586 17.8798 26.7077 18.4298ZM14.5016 16.851C14.7875 16.3668 15.1405 15.9175 15.5481 15.5151L15.5659 15.4977L13.0708 13.0511L10.6714 10.6247L10.6276 10.6663C9.78499 11.4925 9.05725 12.4194 8.46494 13.4227L14.5016 16.851V16.851ZM13.0708 13.0498L13.0995 13.0779L13.0708 13.0498ZM24.9855 15.5057L27.456 13.0833L29.9771 10.728L29.9142 10.6649C29.0715 9.83869 28.1235 9.12377 27.099 8.54165L23.6039 14.4622C24.0977 14.7425 24.5573 15.0886 24.9677 15.4883L24.9855 15.5057V15.5057ZM16.9448 14.4581C17.4454 14.1738 17.9844 13.9565 18.5466 13.809L16.7519 7.199C15.5974 7.50079 14.4893 7.94879 13.4565 8.5336L16.9448 14.4581ZM22.002 13.8116L23.8063 7.20302C22.6573 6.90123 21.4713 6.74832 20.2798 6.74698L20.2757 13.5876C20.8598 13.5876 21.4412 13.6628 22.0034 13.8103L22.002 13.8116Z" fill="#65B3AE"/>
<path fill-rule="evenodd" clip-rule="evenodd" d="M78.025 13.494V26.2878H75.1979V16.2663H74.3845L69.8699 26.2878H66.779L72.5431 13.494L72.5431 13.494L75.1979 13.494H78.025ZM61.0149 13.494L66.779 26.2878H63.6885L59.1735 16.2663H58.3605V26.2878H55.5334V16.2663V13.494V13.494H58.3605V13.494H61.0148L61.0149 13.494ZM110.358 26.2878H113.186V13.494H110.358V26.2878ZM85.9497 19.3467L87.3374 16.2663H88.826L90.2138 19.3467H85.9497ZM82.8227 26.2878L84.7007 22.119H91.4628L93.341 26.2878H96.4314L90.6679 13.494L90.6678 13.494L85.4959 13.494L85.4958 13.494V13.4943L79.7318 26.2878H82.8227ZM100.892 16.2663V26.2878H98.0654V16.2663V13.494H100.892L104.594 13.494V13.4942L104.594 13.494L110.358 26.2878H107.267L102.752 16.2663H100.892ZM123.917 16.2663V26.2878H121.09V16.2663H114.756V13.494L121.09 13.494H123.917L130.252 13.494V16.2663H123.917ZM131.823 13.494H134.65V23.5154H143.603V26.2878L134.65 26.2878H131.823V13.494ZM148 21.0922V23.5154H158V26.2878L148 26.2878H145.173V21.0922V18.3199V16.2663V13.494H148L157.999 13.494V16.2663H148V18.3199L157.123 18.3199V21.0922H148Z" fill="#65B3AE"/>
</svg>
