<svg xmlns="http://www.w3.org/2000/svg" width="64" height="64" viewBox="0 0 64 64" fill="none">
<rect width="64" height="64" rx="32" fill="#009393"/>
<path fill-rule="evenodd" clip-rule="evenodd" d="M16.7605 13.1206H47.8639C48.6061 13.1206 49.2917 13.5101 49.6618 14.1421L58.7237 29.6139C59.1934 30.4162 59.054 31.4289 58.3836 32.0795L33.4409 56.291C32.633 57.0753 31.3332 57.0753 30.5252 56.291L5.61639 32.1123C4.93052 31.4465 4.80209 30.4042 5.30644 29.5969L14.9927 14.0924C15.3699 13.4886 16.0393 13.1206 16.7605 13.1206ZM43.8479 20.0282V24.3694H34.9878V27.3792C41.2105 27.7009 45.8792 29.0219 45.9139 30.6053L45.9137 33.9063C45.879 35.4897 41.2105 36.8107 34.9878 37.1323V44.5189H29.1046V37.1323C22.8818 36.8107 18.2131 35.4897 18.1785 33.9063L18.1787 30.6053C18.2133 29.0219 22.8818 27.7009 29.1046 27.3792V24.3694H20.2444V20.0282H43.8479ZM32.0462 34.8646C38.6869 34.8646 44.2375 33.7475 45.5959 32.2558C44.444 30.9908 40.2774 29.9952 34.9878 29.7218V32.8731C34.0397 32.9221 33.0555 32.9479 32.0462 32.9479C31.0368 32.9479 30.0526 32.9221 29.1046 32.8731V29.7218C23.8149 29.9952 19.6484 30.9908 18.4965 32.2558C19.8549 33.7475 25.4054 34.8646 32.0462 34.8646Z" fill="white"/>
</svg>