<svg width="24" height="24" viewBox="0 0 24 24" fill="none" xmlns="http://www.w3.org/2000/svg">
<path fill-rule="evenodd" clip-rule="evenodd" d="M5.66461 3.38857L2.01636 11.0502C2.00177 11.0779 1.99675 11.1097 2.00206 11.1406C2.00738 11.1715 2.02275 11.1998 2.04578 11.2211L11.894 20.6627C11.9223 20.6883 11.9591 20.7024 11.9973 20.7024C12.0354 20.7024 12.0722 20.6883 12.1005 20.6627L21.9546 11.2211C21.9774 11.1997 21.9926 11.1714 21.9979 11.1406C22.0032 11.1097 21.9983 11.078 21.984 11.0502L18.3358 3.38857C18.3261 3.36192 18.3082 3.33901 18.2848 3.3231C18.2613 3.3072 18.2334 3.29911 18.205 3.29999H5.79404C5.76608 3.30076 5.73891 3.3095 5.71575 3.3252C5.69258 3.34089 5.67439 3.36288 5.66331 3.38857H5.66461Z" fill="#50AF95"/>
<path fill-rule="evenodd" clip-rule="evenodd" d="M13.2677 11.834C13.1971 11.8398 12.8317 11.8634 12.0181 11.8634C11.37 11.8634 10.9101 11.8457 10.7451 11.834C8.24046 11.7222 6.37221 11.2858 6.37221 10.7671C6.37221 10.2484 8.24046 9.80653 10.7451 9.69475V11.3979C10.9085 11.4097 11.3759 11.4391 12.024 11.4391C12.8019 11.4391 13.1909 11.4038 13.2618 11.3979V9.69475C15.7605 9.80653 17.6288 10.2429 17.6288 10.7612C17.6288 11.2796 15.7658 11.7222 13.2677 11.834ZM13.2677 9.52381V7.99711H16.7568V5.66931H7.25633V7.99711H10.7451V9.52381C7.91035 9.65455 5.77702 10.2131 5.77702 10.891C5.77702 11.5689 7.91035 12.1229 10.7451 12.2582V17.1442H13.2677V12.2582C16.0965 12.1275 18.2243 11.5686 18.2243 10.8969C18.2243 10.2252 16.0965 9.65324 13.2677 9.52413V9.52381Z" fill="white"/>
</svg>
