<svg width="390" height="390" viewBox="0 0 390 390" fill="none" xmlns="http://www.w3.org/2000/svg">
<circle cx="195" cy="195" r="195" fill="#ADFF00"/>
<path fill-rule="evenodd" clip-rule="evenodd" d="M144 97H73V292H153C175.091 292 193 274.091 193 252V223C193 209.412 186.225 197.407 175.869 190.178C180.971 183.462 184 175.085 184 166V137C184 114.909 166.091 97 144 97ZM144 125H101V178H144C150.627 178 156 172.627 156 166V137C156 130.373 150.627 125 144 125ZM153 211H101V264H153C159.627 264 165 258.627 165 252V223C165 216.373 159.627 211 153 211ZM235 97H207V125H235V97ZM317 151H290V97H262V151H207V292H235V179H262V292H317V264H290V179H317V151Z" fill="black"/>
</svg>
