<?xml version="1.0" encoding="utf-8"?>
<svg width="256px" height="256px" viewBox="0 0 256 256" version="1.1" xmlns:xlink="http://www.w3.org/1999/xlink" xmlns="http://www.w3.org/2000/svg">
  <defs>
    <path d="M0 0L178 0L178 226L0 226L0 0Z" id="path_1" />
    <path d="M0 0L181 0L181 214L0 214L0 0Z" id="path_2" />
    <clipPath id="clip_1">
      <use xlink:href="#path_1" transform="translate(0, 59.799988)" />
    </clipPath>
    <clipPath id="clip_2">
      <use xlink:href="#path_2" transform="translate(0, 65.799995)" />
    </clipPath>
  </defs>
  <g id="Group">
    <path d="M0 0L256 0L256 256L0 256L0 0Z" id="Rectangle" fill="#1F1F1F" fill-rule="evenodd" stroke="none" />
    <g id="A" clip-path="url(#clip_1)" transform="translate(39 -59.799988)">
      <g id="A" fill="#FFFFFF">
        <path d="M53.2867 201.6L88.992 111.456L124.537 201.6L53.2867 201.6ZM174.816 273.6L88.992 64.224L2.88 273.6L24.768 273.6L45.8718 220.32L131.919 220.32L152.928 273.6L174.816 273.6Z" />
      </g>
    </g>
    <g id="U" clip-path="url(#clip_2)" transform="translate(38 -23.799995)">
      <g id="U" fill="#FFFFFF">
        <path d="M163.296 208.8L163.296 77.76L143.136 77.76L143.136 211.68Q143.136 223.488 138.816 231.84Q126.303 256.032 90.432 256.032Q67.3389 256.032 53.424 245.664Q37.44 233.754 37.44 211.68L37.44 77.76L17.28 77.76L17.28 208.8Q17.28 240.616 38.016 258.912Q57.6 276.192 90.432 276.192Q122.976 276.192 142.56 258.912Q163.296 240.616 163.296 208.8Z" />
      </g>
    </g>
  </g>
</svg>