<?xml version="1.0" encoding="utf-8"?>
<svg width="24px" height="24px" viewBox="0 0 24 24" version="1.1" xmlns:xlink="http://www.w3.org/1999/xlink" xmlns="http://www.w3.org/2000/svg">
  <g id="Group">
    <path d="M0 12C0 5.37258 5.37258 0 12 0C18.6274 0 24 5.37258 24 12C24 18.6274 18.6274 24 12 24C5.37258 24 0 18.6274 0 12Z" id="Mask" fill="#272727" fill-rule="evenodd" stroke="none" />
    <path d="M16.5469 12.1549L12.1548 1.44L7.73891 12.1771L7.73891 5.568L6.05891 5.568L6.05891 16.2619L4.97885 18.888L6.50358 18.888Q6.93549 19.9128 7.78691 20.664C8.8749 21.624 10.3309 22.104 12.1549 22.104Q14.8669 22.104 16.4989 20.664C17.0665 20.1632 17.4943 19.5712 17.7822 18.888L19.3068 18.888L18.2269 16.2534L18.2269 5.568L16.5469 5.568L16.5469 12.1549ZM16.5469 16.5144L15.7321 14.448L8.5615 14.448L7.73891 16.5248L7.73891 16.728Q7.73891 18.5675 9.07091 19.56C9.84397 20.136 10.872 20.424 12.1549 20.424Q15.1441 20.424 16.1869 18.408Q16.5469 17.712 16.5469 16.728L16.5469 16.5144ZM9.17941 12.888L12.1548 5.376L15.1169 12.888L9.17941 12.888Z" id="U-Union" fill="#FFFFFF" fill-rule="evenodd" stroke="none" />
  </g>
</svg>