<svg id="svg" version="1.1" xmlns="http://www.w3.org/2000/svg" xmlns:xlink="http://www.w3.org/1999/xlink" width="400" height="400" viewBox="0, 0, 400,400"><g id="svgg"><path id="path0" d="M281.098 80.498 C 280.491 80.702,280.098 81.034,280.223 81.237 C 280.494 81.676,279.929 81.892,277.874 82.137 C 276.289 82.326,275.348 82.800,276.557 82.800 C 276.937 82.800,277.136 82.980,277.000 83.200 C 276.864 83.420,276.223 83.600,275.576 83.600 C 274.667 83.600,274.400 83.781,274.400 84.400 C 274.400 85.067,274.133 85.200,272.800 85.200 C 271.467 85.200,271.200 85.333,271.200 86.000 C 271.200 86.667,270.933 86.800,269.600 86.800 C 268.267 86.800,268.000 86.933,268.000 87.600 C 268.000 88.252,267.733 88.400,266.563 88.400 C 265.462 88.400,265.076 88.587,264.916 89.200 C 264.782 89.711,264.370 90.000,263.777 90.000 C 262.711 90.000,262.070 90.749,262.766 91.179 C 263.024 91.339,262.576 91.494,261.771 91.524 C 260.189 91.584,259.059 92.249,259.454 92.888 C 259.603 93.128,259.386 93.186,258.906 93.034 C 257.887 92.710,256.800 93.127,256.800 93.843 C 256.800 94.149,256.665 94.379,256.500 94.353 C 255.265 94.158,254.299 94.501,254.116 95.200 C 253.957 95.806,253.570 96.000,252.516 96.000 C 251.462 96.000,251.075 96.194,250.916 96.800 C 250.757 97.406,250.370 97.600,249.316 97.600 C 248.262 97.600,247.875 97.794,247.716 98.400 C 247.560 98.997,247.170 99.200,246.180 99.200 C 245.205 99.200,244.787 99.412,244.600 100.000 C 244.460 100.440,244.095 100.800,243.787 100.800 C 243.480 100.800,243.035 101.160,242.800 101.600 C 242.518 102.127,241.962 102.400,241.173 102.400 C 240.475 102.400,239.878 102.651,239.744 103.002 C 239.617 103.333,238.812 103.717,237.956 103.853 C 236.734 104.049,236.391 104.284,236.360 104.951 C 236.324 105.712,236.287 105.696,236.000 104.800 C 235.693 103.841,235.678 103.837,235.640 104.700 C 235.610 105.383,235.359 105.600,234.600 105.600 C 233.867 105.600,233.600 105.813,233.600 106.400 C 233.600 107.052,233.333 107.200,232.163 107.200 C 231.062 107.200,230.676 107.387,230.516 108.000 C 230.360 108.595,229.970 108.800,228.996 108.800 C 228.200 108.800,227.595 109.036,227.455 109.400 C 227.329 109.730,226.949 110.000,226.613 110.000 C 226.276 110.000,226.000 110.270,226.000 110.600 C 226.000 110.930,225.865 111.176,225.700 111.146 C 224.915 111.007,222.770 111.768,222.044 112.444 C 221.598 112.860,220.957 113.200,220.620 113.200 C 220.283 113.200,219.782 113.560,219.507 114.000 C 219.174 114.534,218.574 114.800,217.704 114.800 C 216.667 114.800,216.400 114.964,216.400 115.600 C 216.400 116.252,216.133 116.400,214.963 116.400 C 213.862 116.400,213.476 116.587,213.316 117.200 C 213.161 117.794,212.770 118.000,211.800 118.000 C 210.830 118.000,210.439 118.206,210.284 118.800 C 210.124 119.413,209.738 119.600,208.637 119.600 C 207.484 119.600,207.200 119.753,207.200 120.372 C 207.200 120.868,206.878 121.190,206.300 121.272 C 205.765 121.349,205.419 121.662,205.447 122.047 C 205.472 122.402,205.292 122.689,205.047 122.684 C 202.686 122.632,202.000 122.839,202.000 123.600 C 202.000 124.248,201.733 124.400,200.600 124.400 C 199.661 124.400,199.200 124.586,199.200 124.965 C 199.200 125.312,198.584 125.634,197.600 125.800 C 196.616 125.966,196.000 126.288,196.000 126.635 C 196.000 126.946,195.655 127.200,195.233 127.200 C 194.041 127.200,193.200 127.631,193.200 128.243 C 193.200 128.616,192.725 128.800,191.763 128.800 C 190.662 128.800,190.276 128.987,190.116 129.600 C 189.984 130.106,189.570 130.400,188.991 130.400 C 188.249 130.400,188.112 130.571,188.272 131.300 C 188.384 131.812,188.325 132.028,188.135 131.800 C 187.682 131.260,186.675 131.074,186.994 131.590 C 187.146 131.836,186.750 132.000,186.000 132.000 C 185.270 132.000,184.855 132.166,185.000 132.400 C 185.136 132.620,185.046 132.800,184.800 132.800 C 184.554 132.800,184.464 132.980,184.600 133.200 C 184.747 133.438,184.271 133.600,183.424 133.600 C 182.425 133.600,182.000 133.779,182.000 134.200 C 182.000 134.530,181.865 134.814,181.700 134.831 C 179.779 135.027,178.800 135.485,178.800 136.187 C 178.800 136.621,178.391 136.800,177.400 136.800 C 176.267 136.800,176.000 136.952,176.000 137.600 C 176.000 138.267,175.733 138.400,174.400 138.400 C 173.067 138.400,172.800 138.533,172.800 139.200 C 172.800 139.867,172.533 140.000,171.200 140.000 C 169.867 140.000,169.600 140.133,169.600 140.800 C 169.600 141.318,169.333 141.600,168.843 141.600 C 168.426 141.600,167.978 141.881,167.846 142.225 C 167.714 142.569,167.430 142.742,167.215 142.609 C 166.691 142.285,164.407 143.492,164.372 144.110 C 164.356 144.380,164.189 144.240,164.000 143.800 C 163.706 143.116,163.652 143.101,163.628 143.700 C 163.611 144.124,163.285 144.400,162.800 144.400 C 162.239 144.400,161.998 144.669,161.994 145.300 C 161.989 145.957,161.895 146.054,161.644 145.657 C 161.404 145.279,161.217 145.249,161.026 145.557 C 160.876 145.801,160.313 146.000,159.776 146.000 C 159.067 146.000,158.800 146.218,158.800 146.800 C 158.800 147.452,158.533 147.600,157.363 147.600 C 156.262 147.600,155.876 147.787,155.716 148.400 C 155.557 149.006,155.170 149.200,154.116 149.200 C 153.062 149.200,152.675 149.394,152.516 150.000 C 152.400 150.443,151.970 150.800,151.553 150.800 C 151.067 150.800,150.800 151.083,150.800 151.600 C 150.800 152.475,149.789 152.703,149.465 151.900 C 149.304 151.500,149.257 151.500,149.232 151.900 C 149.214 152.175,148.924 152.400,148.587 152.400 C 148.251 152.400,147.872 152.669,147.746 152.998 C 147.619 153.326,147.355 153.496,147.158 153.374 C 146.961 153.252,146.800 153.343,146.800 153.576 C 146.800 153.809,146.344 154.000,145.787 154.000 C 145.231 154.000,144.672 154.269,144.546 154.598 C 144.419 154.926,144.167 155.104,143.986 154.991 C 143.804 154.879,143.542 154.970,143.404 155.193 C 143.266 155.417,142.803 155.600,142.376 155.600 C 141.867 155.600,141.600 155.875,141.600 156.400 C 141.600 157.067,141.333 157.200,140.000 157.200 C 138.667 157.200,138.400 157.333,138.400 158.000 C 138.400 158.667,138.133 158.800,136.800 158.800 C 135.711 158.800,135.200 158.975,135.200 159.349 C 135.200 159.680,134.565 159.999,133.600 160.154 C 132.565 160.319,132.000 160.620,132.000 161.005 C 132.000 161.332,131.661 161.600,131.247 161.600 C 130.830 161.600,130.400 161.957,130.284 162.400 C 130.130 162.991,129.725 163.207,128.737 163.228 C 128.002 163.244,127.040 163.411,126.600 163.600 L 125.800 163.944 126.600 163.978 C 127.738 164.027,126.529 164.786,125.300 164.794 C 124.669 164.798,124.400 165.039,124.400 165.600 C 124.400 166.267,124.133 166.400,122.800 166.400 C 121.467 166.400,121.200 166.533,121.200 167.200 C 121.200 167.867,120.933 168.000,119.600 168.000 C 118.267 168.000,118.000 168.133,118.000 168.800 C 118.000 169.452,117.733 169.600,116.563 169.600 C 115.476 169.600,115.076 169.789,114.922 170.377 C 114.806 170.822,114.237 171.260,113.593 171.402 C 112.973 171.538,112.367 171.908,112.246 172.224 C 112.124 172.541,111.679 172.800,111.255 172.800 C 110.832 172.800,110.386 173.060,110.264 173.378 C 110.142 173.696,109.403 174.076,108.621 174.222 C 107.839 174.369,107.200 174.723,107.200 175.009 C 107.200 175.305,106.508 175.647,105.600 175.800 C 104.616 175.966,104.000 176.288,104.000 176.635 C 104.000 176.966,103.599 177.200,103.033 177.200 C 101.652 177.200,100.800 177.598,100.800 178.243 C 100.800 178.565,100.393 178.800,99.833 178.800 C 98.464 178.800,97.600 179.196,97.600 179.825 C 97.600 180.124,96.978 180.481,96.200 180.626 C 95.430 180.771,94.800 181.043,94.800 181.232 C 94.800 181.421,95.100 181.460,95.466 181.319 C 95.913 181.148,96.036 181.217,95.842 181.532 C 95.683 181.789,94.888 182.003,94.076 182.006 C 93.264 182.009,92.330 182.187,92.000 182.400 C 91.500 182.723,91.530 182.789,92.180 182.794 C 93.454 182.804,92.344 183.561,90.893 183.672 C 89.989 183.741,89.600 183.972,89.600 184.441 C 89.600 184.809,89.375 185.103,89.100 185.093 C 87.357 185.028,86.800 185.247,86.800 186.000 C 86.800 186.667,86.533 186.800,85.200 186.800 C 83.867 186.800,83.600 186.933,83.600 187.600 C 83.600 188.252,83.333 188.400,82.163 188.400 C 81.062 188.400,80.676 188.587,80.516 189.200 C 80.336 189.889,79.719 190.188,78.741 190.061 C 78.599 190.043,78.572 190.371,78.681 190.790 C 78.837 191.385,79.376 191.607,81.140 191.799 C 82.383 191.935,84.480 192.216,85.800 192.424 C 87.120 192.632,90.360 192.985,93.000 193.210 C 95.640 193.434,98.880 193.799,100.200 194.022 C 101.520 194.244,105.741 194.685,109.579 195.001 C 113.417 195.317,117.467 195.750,118.579 195.962 C 119.691 196.174,122.490 196.462,124.800 196.602 C 127.110 196.742,130.260 197.099,131.800 197.395 C 133.340 197.690,136.400 198.050,138.600 198.195 C 140.800 198.339,144.310 198.701,146.400 199.000 C 148.490 199.299,152.270 199.656,154.800 199.795 C 157.330 199.933,160.660 200.296,162.200 200.601 C 163.740 200.905,166.913 201.266,169.251 201.401 C 171.589 201.536,174.649 201.827,176.051 202.046 C 177.453 202.266,181.300 202.698,184.600 203.006 C 187.900 203.315,192.040 203.748,193.800 203.970 C 197.527 204.440,204.811 205.211,208.062 205.480 C 210.088 205.648,210.352 205.580,210.589 204.836 C 210.734 204.379,211.080 203.777,211.358 203.499 C 211.636 203.221,212.119 202.512,212.432 201.924 C 213.916 199.128,216.059 195.611,216.410 195.394 C 216.624 195.261,216.800 194.867,216.800 194.518 C 216.800 194.169,217.472 192.874,218.294 191.641 C 219.757 189.447,220.488 188.217,221.764 185.800 C 222.113 185.140,222.714 184.122,223.099 183.539 C 223.485 182.955,224.520 181.266,225.400 179.785 C 226.280 178.305,227.393 176.442,227.873 175.647 C 228.352 174.851,229.032 173.660,229.383 173.000 C 229.734 172.340,230.242 171.439,230.511 170.999 C 230.780 170.558,231.675 169.094,232.500 167.746 C 233.325 166.398,234.000 165.116,234.000 164.897 C 234.000 164.677,234.280 164.265,234.623 163.981 C 234.966 163.696,235.504 162.909,235.819 162.232 C 236.667 160.410,238.692 156.882,240.239 154.532 C 240.987 153.395,241.600 152.363,241.600 152.240 C 241.600 152.117,242.275 150.977,243.099 149.708 C 243.924 148.438,244.820 146.950,245.092 146.400 C 245.363 145.850,245.811 145.040,246.088 144.600 C 246.364 144.160,247.175 142.873,247.890 141.740 C 248.604 140.608,249.369 139.208,249.589 138.630 C 249.808 138.052,250.182 137.359,250.418 137.089 C 251.047 136.372,252.416 134.083,253.580 131.799 C 254.141 130.699,255.005 129.231,255.500 128.538 C 255.995 127.844,256.400 127.162,256.400 127.022 C 256.400 126.883,257.030 125.833,257.800 124.690 C 258.570 123.546,259.200 122.481,259.200 122.323 C 259.200 122.043,260.832 119.430,261.545 118.569 C 261.742 118.332,262.014 117.792,262.151 117.369 C 262.400 116.601,265.593 111.431,266.382 110.517 C 266.612 110.251,266.800 109.839,266.800 109.601 C 266.800 109.362,267.139 108.680,267.553 108.084 C 267.967 107.488,269.542 104.860,271.053 102.243 C 272.564 99.627,274.206 96.837,274.703 96.043 C 275.199 95.250,275.880 94.060,276.215 93.400 C 276.551 92.740,277.624 90.940,278.601 89.400 C 279.577 87.860,280.574 86.150,280.816 85.601 C 281.058 85.051,281.524 84.305,281.853 83.942 C 283.000 82.674,282.425 80.053,281.098 80.498 M285.321 85.324 L 285.356 89.800 285.492 85.900 C 285.676 80.625,286.379 80.908,286.484 86.300 L 286.569 90.600 286.699 86.443 C 286.815 82.753,286.743 82.206,286.057 81.568 C 285.298 80.860,285.286 80.920,285.321 85.324 M89.078 215.057 C 89.340 215.164,89.458 215.555,89.340 215.926 C 89.156 216.502,89.187 216.513,89.556 216.000 C 90.175 215.139,90.100 214.795,89.300 214.832 C 88.915 214.849,88.815 214.951,89.078 215.057 M96.800 229.400 C 96.800 229.730,96.980 230.000,97.200 230.000 C 97.420 230.000,97.600 229.730,97.600 229.400 C 97.600 229.070,97.420 228.800,97.200 228.800 C 96.980 228.800,96.800 229.070,96.800 229.400 M104.806 243.100 C 104.824 243.977,105.588 244.559,105.594 243.700 C 105.597 243.205,105.420 242.800,105.200 242.800 C 104.980 242.800,104.803 242.935,104.806 243.100 M106.300 246.265 C 107.082 246.580,106.886 247.318,106.100 247.019 C 105.539 246.805,105.499 246.852,105.900 247.256 C 106.267 247.626,106.518 247.642,106.845 247.315 C 107.353 246.807,106.989 245.984,106.276 246.032 C 105.933 246.054,105.939 246.119,106.300 246.265 M123.606 277.500 C 123.624 278.377,124.388 278.959,124.394 278.100 C 124.397 277.605,124.220 277.200,124.000 277.200 C 123.780 277.200,123.603 277.335,123.606 277.500 " stroke="none" fill="#abfb0b" fill-rule="evenodd"></path><path id="path1" d="M283.433 81.458 C 283.047 82.465,283.149 83.899,283.561 83.249 C 284.670 81.498,284.800 83.613,284.805 103.524 C 284.811 125.164,284.837 125.620,286.035 125.307 C 287.100 125.028,287.226 110.083,286.171 109.029 C 285.826 108.683,285.724 108.400,285.944 108.400 C 286.662 108.400,286.902 106.778,286.289 106.071 C 285.825 105.537,285.653 103.233,285.446 94.800 C 285.303 88.970,285.077 83.536,284.945 82.724 C 284.689 81.162,283.824 80.438,283.433 81.458 M282.482 85.089 C 282.201 85.480,281.752 86.195,281.485 86.678 C 281.218 87.161,279.920 89.381,278.600 91.611 C 277.280 93.841,275.936 96.146,275.613 96.733 C 275.290 97.320,274.467 98.700,273.784 99.800 C 273.101 100.900,270.607 105.130,268.242 109.200 C 262.788 118.584,260.949 121.691,260.532 122.226 C 260.349 122.460,259.590 123.810,258.844 125.226 C 258.098 126.642,257.011 128.520,256.427 129.400 C 255.246 131.183,251.745 137.123,249.600 140.984 C 248.830 142.371,248.003 143.751,247.762 144.052 C 247.521 144.354,247.198 144.870,247.043 145.200 C 246.888 145.530,246.365 146.461,245.881 147.268 C 245.396 148.075,243.936 150.595,242.635 152.868 C 241.334 155.141,239.783 157.720,239.188 158.600 C 238.593 159.480,237.617 161.100,237.019 162.200 C 236.421 163.300,235.056 165.640,233.984 167.400 C 232.913 169.160,231.759 171.140,231.419 171.800 C 231.080 172.460,230.447 173.540,230.014 174.200 C 229.580 174.860,228.970 175.957,228.659 176.639 C 228.347 177.320,227.441 178.803,226.646 179.934 C 225.851 181.066,225.200 182.133,225.200 182.305 C 225.200 182.477,224.570 183.575,223.800 184.744 C 223.030 185.913,222.400 186.961,222.400 187.073 C 222.400 187.185,222.020 187.810,221.556 188.461 C 221.092 189.113,220.808 189.741,220.924 189.858 C 221.041 189.974,221.446 189.559,221.825 188.935 C 222.204 188.311,222.849 187.312,223.257 186.716 C 223.666 186.120,224.000 185.518,224.000 185.379 C 224.000 185.240,224.360 184.669,224.800 184.109 C 225.240 183.550,225.600 182.846,225.600 182.546 C 225.600 182.246,225.960 181.640,226.400 181.200 C 226.840 180.760,227.200 180.130,227.200 179.800 C 227.200 179.470,227.378 179.200,227.595 179.200 C 227.812 179.200,228.258 178.556,228.587 177.769 C 228.916 176.982,229.726 175.536,230.388 174.555 C 231.050 173.575,231.703 172.328,231.839 171.786 C 231.975 171.244,232.252 170.800,232.453 170.800 C 232.655 170.800,233.008 170.395,233.238 169.900 C 233.860 168.560,235.039 166.478,235.500 165.905 C 235.724 165.627,236.415 164.410,237.035 163.200 C 237.656 161.990,238.765 160.135,239.500 159.078 C 240.235 158.021,241.012 156.761,241.228 156.278 C 241.443 155.795,242.058 154.680,242.595 153.800 C 243.132 152.920,243.861 151.660,244.213 151.000 C 244.566 150.340,245.294 149.080,245.831 148.200 C 246.368 147.320,247.025 146.105,247.291 145.500 C 247.557 144.895,247.914 144.400,248.082 144.400 C 248.251 144.400,248.660 143.815,248.991 143.100 C 249.897 141.142,252.471 136.628,252.811 136.400 C 252.976 136.290,253.405 135.570,253.766 134.800 C 254.477 133.282,254.803 132.730,256.603 130.000 C 257.256 129.010,258.024 127.750,258.310 127.200 C 258.596 126.650,259.271 125.480,259.812 124.600 C 260.352 123.720,261.068 122.460,261.403 121.800 C 262.076 120.475,262.361 119.996,264.361 116.833 C 265.115 115.642,266.262 113.662,266.911 112.433 C 267.560 111.205,268.306 109.930,268.568 109.600 C 268.831 109.270,269.262 108.550,269.527 108.000 C 269.792 107.450,270.367 106.460,270.805 105.800 C 271.242 105.140,271.828 104.150,272.105 103.600 C 272.382 103.050,273.110 101.826,273.722 100.880 C 274.335 99.934,275.042 98.674,275.295 98.080 C 275.548 97.486,276.019 96.684,276.342 96.297 C 276.980 95.533,277.632 94.466,278.602 92.600 C 278.945 91.940,279.574 90.860,280.001 90.200 C 280.427 89.540,281.073 88.460,281.436 87.800 C 281.799 87.140,282.363 86.295,282.689 85.923 C 283.015 85.551,283.217 85.051,283.137 84.812 C 283.055 84.566,282.772 84.685,282.482 85.089 M219.195 192.516 C 218.441 193.662,217.542 195.140,217.197 195.800 C 216.626 196.892,215.894 198.167,212.188 204.522 C 211.122 206.348,210.783 206.629,209.388 206.843 C 208.514 206.977,208.115 207.112,208.500 207.143 C 209.929 207.259,209.592 208.027,204.000 217.411 C 202.350 220.180,200.640 223.057,200.200 223.804 C 199.760 224.552,198.565 226.567,197.545 228.282 C 196.524 229.997,195.390 231.940,195.023 232.600 C 194.656 233.260,193.601 235.080,192.678 236.646 C 187.376 245.636,184.923 249.760,184.306 250.720 C 183.924 251.314,183.417 252.250,183.178 252.799 C 182.940 253.349,182.506 254.069,182.215 254.399 C 181.923 254.730,180.828 256.530,179.782 258.400 C 178.735 260.270,177.357 262.700,176.719 263.800 C 176.081 264.900,175.096 266.610,174.531 267.600 C 173.966 268.590,172.922 270.300,172.212 271.400 C 171.502 272.500,170.418 274.300,169.803 275.400 C 169.188 276.500,168.291 278.030,167.809 278.800 C 165.628 282.289,162.795 287.190,161.797 289.200 C 161.197 290.410,160.501 291.646,160.253 291.947 C 160.004 292.248,158.777 294.228,157.527 296.347 C 152.404 305.030,150.566 308.116,149.912 309.131 C 149.534 309.719,148.923 310.740,148.556 311.400 C 148.188 312.060,147.552 313.029,147.143 313.554 C 146.735 314.079,146.400 314.934,146.400 315.455 L 146.400 316.402 217.100 316.301 L 287.800 316.200 287.928 315.300 C 288.000 314.789,287.845 314.400,287.568 314.400 C 286.596 314.400,282.615 309.724,279.800 305.275 C 279.580 304.927,278.494 303.373,277.388 301.822 C 275.131 298.658,275.138 298.668,271.747 293.754 C 270.398 291.799,268.778 289.541,268.147 288.735 C 266.988 287.255,263.339 282.074,262.599 280.859 C 262.379 280.496,261.432 279.120,260.496 277.800 C 259.559 276.480,258.167 274.500,257.402 273.400 C 256.636 272.300,255.105 270.140,254.000 268.600 C 252.894 267.060,251.339 264.810,250.544 263.600 C 249.749 262.390,248.309 260.320,247.344 259.000 C 246.379 257.680,244.969 255.700,244.210 254.600 C 243.451 253.500,241.788 251.107,240.515 249.283 C 239.242 247.459,238.020 245.650,237.800 245.264 C 237.580 244.877,236.837 243.850,236.149 242.980 C 235.460 242.111,234.032 240.140,232.975 238.600 C 230.990 235.708,229.820 234.034,227.387 230.600 C 226.608 229.500,225.306 227.610,224.494 226.400 C 222.409 223.293,218.514 217.919,217.801 217.166 C 217.470 216.818,217.200 216.358,217.200 216.144 C 217.200 215.930,216.120 214.335,214.800 212.600 C 213.480 210.865,212.400 209.204,212.400 208.910 C 212.400 208.616,212.130 208.271,211.800 208.145 C 210.934 207.812,211.065 207.267,212.602 204.800 C 213.355 203.590,214.255 202.060,214.600 201.400 C 214.946 200.740,215.665 199.480,216.198 198.600 C 216.731 197.720,217.450 196.460,217.794 195.800 C 218.504 194.442,219.076 193.495,220.159 191.888 C 220.571 191.276,220.831 190.698,220.737 190.604 C 220.643 190.510,219.949 191.370,219.195 192.516 M77.600 192.000 C 77.600 192.220,77.960 192.400,78.400 192.400 C 78.933 192.400,79.200 192.667,79.200 193.200 C 79.200 193.733,78.933 194.000,78.400 194.000 C 77.900 194.000,77.600 194.267,77.600 194.711 C 77.600 195.102,77.960 195.730,78.400 196.107 C 78.840 196.484,79.200 197.058,79.200 197.384 C 79.200 197.745,79.433 197.885,79.800 197.745 C 80.130 197.618,80.400 197.699,80.400 197.924 C 80.400 198.149,80.175 198.414,79.900 198.512 C 79.625 198.610,79.523 198.823,79.673 198.985 C 80.153 199.503,80.800 198.787,80.800 197.739 C 80.800 197.062,80.535 196.656,80.000 196.516 C 79.426 196.366,79.200 195.970,79.200 195.115 L 79.200 193.924 85.300 194.141 L 91.400 194.359 85.885 193.835 C 81.238 193.393,80.226 193.176,79.459 192.455 C 78.496 191.551,77.600 191.331,77.600 192.000 M92.451 194.805 C 93.279 195.289,102.142 196.109,104.227 195.896 C 105.548 195.760,105.447 195.723,103.600 195.666 C 102.390 195.628,99.780 195.331,97.800 195.005 C 93.537 194.305,91.463 194.227,92.451 194.805 M107.159 196.434 C 108.287 196.886,116.434 197.609,119.600 197.539 C 121.245 197.502,120.841 197.408,118.000 197.166 C 115.910 196.987,112.888 196.652,111.284 196.421 C 109.680 196.189,107.880 196.011,107.284 196.025 L 106.200 196.051 107.159 196.434 M122.452 197.978 C 122.810 198.202,125.780 198.577,129.052 198.811 C 132.323 199.044,135.630 199.398,136.400 199.597 C 137.170 199.796,140.847 200.165,144.570 200.416 C 148.294 200.667,151.804 201.054,152.370 201.275 C 152.937 201.497,155.200 201.728,157.400 201.790 C 159.600 201.852,160.680 201.829,159.800 201.740 C 158.920 201.650,156.760 201.325,155.000 201.017 C 153.240 200.709,149.910 200.347,147.600 200.212 C 145.290 200.078,141.330 199.713,138.800 199.401 C 134.648 198.889,128.435 198.212,123.600 197.744 C 122.268 197.615,121.970 197.676,122.452 197.978 M81.528 200.423 C 82.244 200.710,82.399 201.000,82.209 201.697 C 82.005 202.441,82.036 202.483,82.382 201.934 C 82.968 201.004,82.479 199.995,81.457 200.025 C 80.627 200.050,80.629 200.062,81.528 200.423 M164.000 202.415 C 165.210 202.578,167.370 202.908,168.800 203.148 C 170.230 203.388,172.750 203.559,174.400 203.529 L 177.400 203.473 174.000 203.183 C 172.130 203.023,169.520 202.692,168.200 202.448 C 166.880 202.204,164.900 202.030,163.800 202.061 L 161.800 202.118 164.000 202.415 M179.600 203.995 C 185.379 204.879,187.976 205.162,190.000 205.128 C 192.567 205.086,185.564 204.144,180.400 203.837 C 177.642 203.673,177.578 203.686,179.600 203.995 M83.752 205.381 C 83.467 206.123,83.883 206.800,84.624 206.800 C 84.972 206.800,85.200 206.404,85.200 205.800 C 85.200 204.701,84.132 204.392,83.752 205.381 M194.400 205.634 C 200.978 206.617,202.424 206.770,204.800 206.732 L 207.400 206.691 204.050 206.368 C 202.207 206.190,199.813 205.855,198.730 205.622 C 197.647 205.390,195.734 205.224,194.480 205.252 L 192.200 205.305 194.400 205.634 M85.277 208.732 C 85.431 210.070,86.992 210.495,87.088 209.224 C 87.149 208.413,86.652 207.891,85.677 207.743 C 85.331 207.691,85.195 208.028,85.277 208.732 M86.800 211.085 C 86.800 211.368,87.070 211.600,87.400 211.600 C 88.110 211.600,88.194 212.233,87.538 212.638 C 87.252 212.815,87.185 212.748,87.362 212.462 C 87.519 212.208,87.442 212.000,87.190 212.000 C 86.498 212.000,86.948 212.916,87.694 213.026 C 88.469 213.139,88.827 212.388,88.533 211.266 C 88.301 210.377,86.800 210.220,86.800 211.085 M89.076 214.259 C 89.616 214.376,90.018 214.825,90.125 215.430 C 90.275 216.283,90.291 216.267,90.249 215.305 C 90.210 214.425,89.996 214.187,89.200 214.134 C 88.366 214.080,88.346 214.101,89.076 214.259 M90.000 217.200 C 90.000 217.420,90.360 217.600,90.800 217.600 C 91.463 217.600,91.600 217.867,91.600 219.153 C 91.600 220.370,91.773 220.752,92.400 220.916 C 93.036 221.082,93.200 220.928,93.200 220.163 C 93.200 219.633,93.042 219.200,92.849 219.200 C 92.655 219.200,92.273 218.660,92.000 218.000 C 91.532 216.869,90.000 216.257,90.000 217.200 M93.200 222.953 C 93.200 223.570,93.482 223.981,94.000 224.116 C 94.664 224.290,94.800 224.128,94.800 223.163 C 94.800 222.267,94.616 222.000,94.000 222.000 C 93.424 222.000,93.200 222.267,93.200 222.953 M94.800 225.200 C 94.800 225.420,95.091 225.600,95.447 225.600 C 95.896 225.600,96.030 225.844,95.884 226.400 C 95.769 226.840,95.838 227.200,96.037 227.200 C 96.237 227.200,96.400 226.660,96.400 226.000 C 96.400 225.067,96.222 224.800,95.600 224.800 C 95.160 224.800,94.800 224.980,94.800 225.200 M96.267 227.867 C 95.738 228.396,96.021 228.712,97.175 228.882 C 98.208 229.033,98.303 228.966,97.961 228.327 C 97.569 227.594,96.759 227.374,96.267 227.867 M98.400 231.569 C 99.155 231.787,99.377 232.095,99.305 232.829 C 99.221 233.688,99.259 233.717,99.637 233.079 C 100.182 232.157,99.450 231.184,98.251 231.240 C 97.496 231.275,97.513 231.312,98.400 231.569 M100.869 237.068 C 101.059 238.069,102.775 238.318,102.632 237.324 C 102.574 236.922,102.127 236.541,101.628 236.468 C 100.938 236.366,100.761 236.506,100.869 237.068 M102.473 239.869 C 102.612 241.043,103.108 241.372,103.943 240.843 C 104.732 240.344,104.130 238.800,103.146 238.800 C 102.515 238.800,102.373 239.025,102.473 239.869 M104.000 242.285 C 104.000 242.568,104.360 242.800,104.800 242.800 C 105.280 242.800,105.600 243.067,105.600 243.467 C 105.600 243.833,105.699 244.035,105.819 243.914 C 105.940 243.793,105.924 243.236,105.783 242.675 C 105.516 241.611,104.000 241.279,104.000 242.285 M286.471 262.667 C 286.399 282.182,286.447 283.200,287.443 283.200 C 287.911 283.200,287.986 280.811,287.913 268.300 C 287.841 255.926,287.788 254.689,287.600 261.000 L 287.373 268.600 287.235 262.000 C 286.854 243.798,286.539 244.073,286.471 262.667 M105.600 245.572 C 105.600 245.807,105.947 246.000,106.372 246.000 C 106.850 246.000,107.217 246.344,107.336 246.900 C 107.464 247.504,107.506 247.406,107.463 246.600 C 107.402 245.440,105.600 244.446,105.600 245.572 M108.800 251.200 C 108.800 251.640,108.875 252.000,108.967 252.000 C 109.059 252.000,109.419 252.109,109.767 252.243 C 110.245 252.426,110.400 252.229,110.400 251.443 C 110.400 250.667,110.195 250.400,109.600 250.400 C 109.067 250.400,108.800 250.667,108.800 251.200 M110.400 254.200 C 110.400 254.819,110.627 255.200,110.995 255.200 C 111.379 255.200,111.680 255.759,111.842 256.772 C 112.102 258.401,113.600 259.062,113.600 257.548 C 113.600 256.366,113.155 255.642,112.567 255.868 C 112.142 256.031,112.000 255.723,112.000 254.643 C 112.000 253.467,111.852 253.200,111.200 253.200 C 110.613 253.200,110.400 253.467,110.400 254.200 M113.400 259.600 C 113.260 259.827,113.596 260.000,114.176 260.000 C 114.739 260.000,115.200 260.210,115.200 260.467 C 115.200 260.723,115.316 260.818,115.457 260.676 C 115.807 260.326,114.829 259.200,114.175 259.200 C 113.885 259.200,113.536 259.380,113.400 259.600 M116.576 264.838 C 116.427 265.079,116.603 265.574,116.967 265.938 C 117.711 266.682,118.520 265.979,118.120 264.936 C 117.872 264.289,116.952 264.231,116.576 264.838 M118.098 267.874 C 118.197 269.070,119.404 269.889,119.747 268.993 C 120.077 268.134,119.660 267.309,118.780 267.079 C 118.165 266.918,118.032 267.074,118.098 267.874 M119.673 271.064 C 119.752 271.726,120.073 272.168,120.522 272.232 C 121.138 272.321,121.168 272.241,120.722 271.693 C 120.278 271.146,120.298 271.087,120.855 271.295 C 121.352 271.481,121.461 271.355,121.308 270.770 C 120.979 269.510,119.520 269.772,119.673 271.064 M121.354 274.479 C 121.386 275.122,121.682 275.440,122.332 275.532 C 123.108 275.642,123.242 275.508,123.132 274.732 C 122.946 273.417,121.288 273.181,121.354 274.479 M122.800 276.400 C 122.800 276.620,123.160 276.800,123.600 276.800 C 124.198 276.800,124.408 277.077,124.432 277.900 C 124.449 278.505,124.557 278.767,124.671 278.483 C 125.066 277.496,124.417 276.000,123.592 276.000 C 123.157 276.000,122.800 276.180,122.800 276.400 M126.073 282.297 C 126.262 283.932,127.600 284.049,127.600 282.429 C 127.600 281.453,127.430 281.200,126.773 281.200 C 126.108 281.200,125.972 281.414,126.073 282.297 M127.600 285.400 C 127.600 285.950,127.791 286.400,128.024 286.400 C 128.257 286.400,128.333 286.175,128.194 285.900 C 128.055 285.625,128.224 285.749,128.570 286.176 C 129.174 286.921,129.200 286.900,129.200 285.676 C 129.200 284.667,129.033 284.400,128.400 284.400 C 127.813 284.400,127.600 284.667,127.600 285.400 M129.200 288.000 C 129.200 288.220,129.457 288.400,129.771 288.400 C 130.085 288.400,130.424 288.715,130.524 289.100 C 130.637 289.531,130.725 289.377,130.754 288.700 C 130.789 287.851,130.617 287.600,130.000 287.600 C 129.560 287.600,129.200 287.780,129.200 288.000 M131.200 291.166 C 131.838 291.350,132.158 291.697,132.082 292.127 C 132.018 292.497,132.137 292.800,132.347 292.800 C 132.557 292.800,132.669 292.485,132.595 292.100 C 132.522 291.715,132.447 291.265,132.431 291.100 C 132.414 290.935,131.905 290.818,131.300 290.840 L 130.200 290.880 131.200 291.166 M133.822 295.964 C 133.488 296.504,134.009 297.600,134.600 297.600 C 135.191 297.600,135.712 296.504,135.378 295.964 C 135.254 295.764,134.904 295.600,134.600 295.600 C 134.296 295.600,133.946 295.764,133.822 295.964 M135.200 299.092 C 135.200 299.970,135.932 300.800,136.707 300.800 C 137.067 300.800,137.210 300.425,137.127 299.700 C 136.973 298.367,135.200 297.807,135.200 299.092 M136.800 301.600 C 136.800 301.820,137.160 302.000,137.600 302.000 C 138.080 302.000,138.400 302.267,138.400 302.667 C 138.400 303.033,138.506 303.227,138.637 303.097 C 139.117 302.616,138.324 301.200,137.573 301.200 C 137.148 301.200,136.800 301.380,136.800 301.600 M141.672 310.496 C 141.862 311.825,143.200 311.942,143.200 310.629 C 143.200 309.855,142.995 309.600,142.372 309.600 C 141.743 309.600,141.575 309.815,141.672 310.496 M143.282 313.583 C 143.463 315.129,144.800 315.192,144.800 313.654 C 144.800 312.687,144.639 312.462,143.982 312.511 C 143.354 312.559,143.191 312.809,143.282 313.583 " stroke="none" fill="#3b3b3b" fill-rule="evenodd"></path><path id="path2" d="M283.391 83.872 C 283.260 84.492,282.985 85.270,282.780 85.600 C 282.576 85.930,282.041 86.830,281.593 87.600 C 281.144 88.370,280.428 89.540,280.001 90.200 C 279.575 90.860,278.945 91.940,278.602 92.600 C 277.632 94.466,276.980 95.533,276.342 96.297 C 276.019 96.684,275.548 97.486,275.295 98.080 C 275.042 98.674,274.335 99.934,273.722 100.880 C 273.110 101.826,272.382 103.050,272.105 103.600 C 271.828 104.150,271.242 105.140,270.805 105.800 C 270.367 106.460,269.792 107.450,269.527 108.000 C 269.262 108.550,268.831 109.270,268.568 109.600 C 268.306 109.930,267.560 111.205,266.911 112.433 C 266.262 113.662,265.115 115.642,264.361 116.833 C 262.361 119.996,262.076 120.475,261.403 121.800 C 261.068 122.460,260.352 123.720,259.812 124.600 C 259.271 125.480,258.596 126.650,258.310 127.200 C 258.024 127.750,257.256 129.010,256.603 130.000 C 254.803 132.730,254.477 133.282,253.766 134.800 C 253.405 135.570,252.976 136.290,252.811 136.400 C 252.471 136.628,249.897 141.142,248.991 143.100 C 248.660 143.815,248.251 144.400,248.082 144.400 C 247.914 144.400,247.557 144.895,247.291 145.500 C 247.025 146.105,246.368 147.320,245.831 148.200 C 245.294 149.080,244.566 150.340,244.213 151.000 C 243.861 151.660,243.132 152.920,242.595 153.800 C 242.058 154.680,241.443 155.795,241.228 156.278 C 241.012 156.761,240.235 158.021,239.500 159.078 C 238.765 160.135,237.656 161.990,237.035 163.200 C 236.415 164.410,235.724 165.627,235.500 165.905 C 235.039 166.478,233.860 168.560,233.238 169.900 C 233.008 170.395,232.655 170.800,232.453 170.800 C 232.252 170.800,231.975 171.244,231.839 171.786 C 231.703 172.328,231.050 173.575,230.388 174.555 C 229.726 175.536,228.916 176.982,228.587 177.769 C 228.258 178.556,227.812 179.200,227.595 179.200 C 227.378 179.200,227.200 179.470,227.200 179.800 C 227.200 180.130,226.840 180.760,226.400 181.200 C 225.960 181.640,225.600 182.246,225.600 182.546 C 225.600 182.846,225.271 183.521,224.868 184.046 C 224.466 184.571,224.013 185.270,223.862 185.600 C 223.711 185.930,223.057 187.010,222.408 188.000 C 221.760 188.990,220.954 190.340,220.616 191.000 C 220.278 191.660,219.641 192.740,219.200 193.400 C 218.759 194.060,218.121 195.140,217.783 195.800 C 217.444 196.460,216.731 197.720,216.198 198.600 C 215.665 199.480,214.946 200.740,214.600 201.400 C 214.255 202.060,213.355 203.590,212.602 204.800 C 211.065 207.267,210.934 207.812,211.800 208.145 C 212.130 208.271,212.400 208.616,212.400 208.910 C 212.400 209.204,213.480 210.865,214.800 212.600 C 216.120 214.335,217.200 215.930,217.200 216.144 C 217.200 216.358,217.470 216.818,217.801 217.166 C 218.514 217.919,222.409 223.293,224.494 226.400 C 225.306 227.610,226.608 229.500,227.387 230.600 C 229.820 234.034,230.990 235.708,232.975 238.600 C 234.032 240.140,235.460 242.111,236.149 242.980 C 236.837 243.850,237.580 244.877,237.800 245.264 C 238.020 245.650,239.242 247.459,240.515 249.283 C 241.788 251.107,243.451 253.500,244.210 254.600 C 244.969 255.700,246.379 257.680,247.344 259.000 C 248.309 260.320,249.749 262.390,250.544 263.600 C 251.339 264.810,252.894 267.060,254.000 268.600 C 255.105 270.140,256.636 272.300,257.402 273.400 C 258.167 274.500,259.559 276.480,260.496 277.800 C 261.432 279.120,262.379 280.496,262.599 280.859 C 263.339 282.074,266.988 287.255,268.147 288.735 C 268.778 289.541,270.398 291.799,271.747 293.754 C 275.138 298.668,275.131 298.658,277.388 301.822 C 278.494 303.373,279.580 304.927,279.800 305.275 C 282.639 309.761,286.598 314.400,287.587 314.400 C 287.910 314.400,288.025 314.758,287.904 315.388 C 287.801 315.931,287.870 316.281,288.058 316.164 C 288.246 316.048,288.357 299.718,288.304 279.876 C 288.249 259.386,288.161 252.311,288.100 263.500 C 288.009 280.116,287.904 283.200,287.430 283.200 C 286.487 283.200,286.498 284.510,286.714 203.637 L 286.924 125.074 286.062 125.300 C 285.588 125.424,285.161 125.497,285.112 125.463 C 285.064 125.428,284.929 115.875,284.812 104.233 C 284.651 88.156,284.483 83.027,284.115 82.905 C 283.841 82.814,283.526 83.235,283.391 83.872 M77.232 193.476 C 77.214 194.618,77.354 195.648,77.542 195.764 C 77.730 195.881,77.799 195.531,77.696 194.988 C 77.543 194.189,77.669 194.000,78.353 194.000 C 79.020 194.000,79.200 194.245,79.200 195.153 C 79.200 195.993,79.431 196.367,80.049 196.529 C 80.808 196.727,80.870 196.939,80.632 198.523 C 80.376 200.233,80.400 200.289,81.327 200.112 C 82.482 199.891,83.005 200.870,82.368 202.060 C 81.846 203.035,82.154 204.000,82.987 204.000 C 83.324 204.000,83.600 204.253,83.600 204.563 C 83.600 204.928,83.880 205.052,84.400 204.916 C 85.049 204.746,85.200 204.904,85.200 205.753 C 85.200 206.329,84.986 206.800,84.724 206.800 C 84.461 206.800,84.595 207.054,85.019 207.365 C 85.444 207.675,85.916 207.852,86.068 207.758 C 86.495 207.494,87.000 208.489,87.003 209.600 C 87.005 210.328,87.195 210.568,87.703 210.482 C 88.426 210.361,88.590 210.893,88.439 212.869 C 88.374 213.711,88.553 213.967,89.279 214.069 C 90.026 214.175,90.199 214.446,90.196 215.500 C 90.193 216.439,90.374 216.800,90.848 216.800 C 91.208 216.800,91.727 217.340,92.000 218.000 C 92.273 218.660,92.655 219.200,92.849 219.200 C 93.042 219.200,93.200 219.633,93.200 220.163 C 93.200 220.853,93.002 221.095,92.500 221.020 C 92.115 220.962,92.025 220.992,92.300 221.087 C 92.575 221.181,92.821 221.740,92.846 222.329 C 92.876 223.007,92.960 223.143,93.076 222.700 C 93.404 221.445,94.800 221.839,94.800 223.187 C 94.800 223.936,94.615 224.330,94.300 224.253 C 94.025 224.186,93.935 224.207,94.100 224.299 C 94.265 224.391,94.425 224.947,94.454 225.533 C 94.503 226.476,94.529 226.495,94.682 225.700 C 95.024 223.928,96.540 224.539,96.297 226.351 C 96.116 227.700,96.183 227.877,96.810 227.713 C 97.720 227.475,98.414 228.715,97.978 229.800 C 97.488 231.018,97.537 231.200,98.351 231.200 C 99.499 231.200,100.144 232.184,99.628 233.148 C 98.964 234.387,99.112 235.200,100.000 235.200 C 100.440 235.200,100.800 235.457,100.800 235.772 C 100.800 236.087,101.189 236.402,101.664 236.472 C 102.139 236.543,102.576 236.933,102.634 237.341 C 102.719 237.926,102.539 238.043,101.783 237.899 C 101.256 237.798,100.915 237.863,101.026 238.042 C 101.137 238.222,101.846 238.485,102.600 238.626 C 104.115 238.911,104.780 240.060,103.984 241.019 C 103.497 241.606,103.812 241.789,105.055 241.640 C 105.628 241.571,106.043 243.151,105.747 244.279 C 105.571 244.953,105.723 245.163,106.462 245.267 C 107.312 245.388,107.391 245.578,107.303 247.300 C 107.228 248.778,107.341 249.200,107.816 249.200 C 108.151 249.200,108.529 249.470,108.655 249.800 C 108.782 250.130,109.243 250.400,109.680 250.400 C 110.400 250.400,110.455 250.599,110.259 252.500 C 110.139 253.655,110.136 254.285,110.250 253.900 C 110.667 252.499,112.000 253.065,112.000 254.643 C 112.000 255.738,112.140 256.032,112.580 255.863 C 113.329 255.575,113.740 256.852,113.398 258.409 C 113.182 259.392,113.248 259.557,113.773 259.355 C 114.124 259.220,114.666 259.323,114.978 259.582 C 115.566 260.070,115.670 261.600,115.115 261.600 C 114.942 261.600,114.800 261.960,114.800 262.400 C 114.800 262.933,115.067 263.200,115.600 263.200 C 116.120 263.200,116.400 263.467,116.400 263.963 C 116.400 264.528,116.607 264.671,117.200 264.516 C 118.003 264.306,118.171 264.631,118.020 266.103 C 117.981 266.489,118.275 266.926,118.674 267.074 C 119.690 267.449,120.004 268.045,119.740 269.097 C 119.561 269.808,119.683 270.000,120.310 270.000 C 121.270 270.000,121.742 271.401,121.024 272.118 C 120.432 272.710,120.988 273.420,122.239 273.670 C 122.769 273.776,122.995 274.153,122.984 274.911 C 122.973 275.681,123.170 276.000,123.657 276.000 C 124.545 276.000,124.913 277.192,124.577 278.983 C 124.362 280.129,124.434 280.400,124.955 280.400 C 125.348 280.400,125.612 280.752,125.632 281.300 C 125.649 281.795,125.754 281.975,125.865 281.700 C 126.558 279.983,127.688 281.248,127.472 283.500 C 127.351 284.765,127.343 285.485,127.455 285.100 C 127.814 283.866,129.200 284.234,129.200 285.563 C 129.200 286.443,129.030 286.700,128.500 286.620 C 128.115 286.562,128.025 286.592,128.300 286.687 C 128.575 286.781,128.825 287.430,128.854 288.129 C 128.895 289.070,128.954 289.167,129.082 288.500 C 129.334 287.191,130.800 287.276,130.800 288.600 C 130.800 289.150,130.626 289.600,130.413 289.600 C 130.199 289.600,130.129 289.870,130.255 290.200 C 130.382 290.530,130.916 290.800,131.443 290.800 C 131.969 290.800,132.414 290.935,132.431 291.100 C 132.447 291.265,132.522 291.715,132.595 292.100 C 132.669 292.485,132.565 292.800,132.365 292.800 C 132.164 292.800,132.000 293.160,132.000 293.600 C 132.000 294.133,132.267 294.400,132.800 294.400 C 133.308 294.400,133.600 294.667,133.600 295.132 C 133.600 295.633,133.883 295.854,134.500 295.832 C 135.275 295.804,135.383 295.976,135.279 297.069 C 135.177 298.134,135.306 298.360,136.079 298.469 C 136.826 298.575,136.999 298.846,136.996 299.900 C 136.993 300.844,137.173 301.200,137.653 301.200 C 138.540 301.200,138.781 301.970,138.516 303.951 C 138.317 305.436,138.379 305.600,139.147 305.600 C 139.855 305.600,140.000 305.838,140.000 307.000 C 140.000 308.133,140.152 308.400,140.800 308.400 C 141.244 308.400,141.600 308.667,141.600 309.000 C 141.600 309.340,141.959 309.600,142.429 309.600 C 143.196 309.600,143.241 309.770,143.039 311.900 C 142.919 313.165,142.951 313.840,143.110 313.400 C 143.761 311.602,144.881 312.204,144.736 314.274 C 144.613 316.015,144.686 316.212,145.500 316.328 C 146.222 316.430,146.400 316.263,146.400 315.482 C 146.400 314.946,146.735 314.079,147.143 313.554 C 147.552 313.029,148.188 312.060,148.556 311.400 C 148.923 310.740,149.534 309.719,149.912 309.131 C 150.566 308.116,152.404 305.030,157.527 296.347 C 158.777 294.228,160.004 292.248,160.253 291.947 C 160.501 291.646,161.197 290.410,161.797 289.200 C 162.795 287.190,165.628 282.289,167.809 278.800 C 168.291 278.030,169.188 276.500,169.803 275.400 C 170.418 274.300,171.502 272.500,172.212 271.400 C 172.922 270.300,173.966 268.590,174.531 267.600 C 175.096 266.610,176.081 264.900,176.719 263.800 C 177.357 262.700,178.735 260.270,179.782 258.400 C 180.828 256.530,181.923 254.730,182.215 254.399 C 182.506 254.069,182.940 253.349,183.178 252.799 C 183.417 252.250,183.924 251.314,184.306 250.720 C 184.923 249.760,187.376 245.636,192.678 236.646 C 193.601 235.080,194.656 233.260,195.023 232.600 C 195.390 231.940,196.524 229.997,197.545 228.282 C 198.565 226.567,199.760 224.552,200.200 223.804 C 200.640 223.057,202.350 220.180,204.000 217.411 C 210.777 206.040,210.933 207.075,202.369 206.612 C 200.042 206.487,197.573 206.222,196.882 206.023 C 196.191 205.825,192.875 205.460,189.513 205.211 C 186.151 204.962,182.860 204.593,182.200 204.391 C 181.540 204.189,178.014 203.839,174.365 203.613 C 170.715 203.388,167.205 203.028,166.565 202.813 C 165.924 202.598,162.698 202.249,159.396 202.038 C 156.094 201.826,152.931 201.478,152.366 201.263 C 151.802 201.049,148.294 200.670,144.570 200.422 C 140.847 200.173,137.260 199.809,136.600 199.612 C 135.940 199.416,133.330 199.132,130.800 198.982 C 128.270 198.832,125.300 198.539,124.200 198.330 C 123.100 198.121,119.140 197.709,115.400 197.415 C 111.660 197.121,107.790 196.690,106.800 196.456 C 105.810 196.222,102.390 195.851,99.200 195.631 C 96.010 195.411,92.860 195.047,92.200 194.821 C 91.540 194.595,88.345 194.299,85.100 194.163 C 79.661 193.936,79.200 193.858,79.200 193.158 C 79.200 192.678,78.919 192.400,78.433 192.400 C 78.012 192.400,77.576 192.175,77.465 191.900 C 77.354 191.625,77.249 192.334,77.232 193.476 " stroke="none" fill="#040404" fill-rule="evenodd"></path><path id="path3" d="M282.364 79.500 C 282.345 79.665,282.357 80.637,282.392 81.659 C 282.428 82.714,282.252 83.644,281.987 83.808 C 281.729 83.967,281.258 84.661,280.940 85.349 C 280.622 86.037,279.566 87.860,278.594 89.400 C 277.621 90.940,276.551 92.740,276.215 93.400 C 275.880 94.060,275.199 95.250,274.703 96.043 C 274.206 96.837,272.564 99.627,271.053 102.243 C 269.542 104.860,267.967 107.488,267.553 108.084 C 267.139 108.680,266.800 109.362,266.800 109.601 C 266.800 109.839,266.612 110.251,266.382 110.517 C 265.593 111.431,262.400 116.601,262.151 117.369 C 262.014 117.792,261.742 118.332,261.545 118.569 C 260.832 119.430,259.200 122.043,259.200 122.323 C 259.200 122.481,258.570 123.546,257.800 124.690 C 257.030 125.833,256.400 126.883,256.400 127.022 C 256.400 127.162,255.995 127.844,255.500 128.538 C 255.005 129.231,254.141 130.699,253.580 131.799 C 252.416 134.083,251.047 136.372,250.418 137.089 C 250.182 137.359,249.808 138.052,249.589 138.630 C 249.369 139.208,248.604 140.608,247.890 141.740 C 247.175 142.873,246.364 144.160,246.088 144.600 C 245.811 145.040,245.363 145.850,245.092 146.400 C 244.820 146.950,243.924 148.438,243.099 149.708 C 242.275 150.977,241.600 152.117,241.600 152.240 C 241.600 152.363,240.987 153.395,240.239 154.532 C 238.692 156.882,236.667 160.410,235.819 162.232 C 235.504 162.909,234.966 163.696,234.623 163.981 C 234.280 164.265,234.000 164.677,234.000 164.897 C 234.000 165.116,233.325 166.398,232.500 167.746 C 231.675 169.094,230.780 170.558,230.511 170.999 C 230.242 171.439,229.734 172.340,229.383 173.000 C 229.032 173.660,228.352 174.851,227.873 175.647 C 227.393 176.442,226.280 178.305,225.400 179.785 C 224.520 181.266,223.485 182.955,223.099 183.539 C 222.714 184.122,222.113 185.140,221.764 185.800 C 220.488 188.217,219.757 189.447,218.294 191.641 C 217.472 192.874,216.800 194.169,216.800 194.518 C 216.800 194.867,216.624 195.261,216.410 195.394 C 216.059 195.611,213.916 199.128,212.432 201.924 C 212.119 202.512,211.636 203.221,211.358 203.499 C 211.080 203.777,210.734 204.379,210.589 204.836 C 210.352 205.580,210.088 205.648,208.062 205.480 C 204.811 205.211,197.527 204.440,193.800 203.970 C 192.040 203.748,187.900 203.315,184.600 203.006 C 181.300 202.698,177.453 202.266,176.051 202.046 C 174.649 201.827,171.589 201.536,169.251 201.401 C 166.913 201.266,163.740 200.905,162.200 200.601 C 160.660 200.296,157.330 199.933,154.800 199.795 C 152.270 199.656,148.490 199.299,146.400 199.000 C 144.310 198.701,140.800 198.339,138.600 198.195 C 136.400 198.050,133.340 197.690,131.800 197.395 C 130.260 197.099,127.110 196.742,124.800 196.602 C 122.490 196.462,119.691 196.174,118.579 195.962 C 117.467 195.750,113.417 195.317,109.579 195.001 C 105.741 194.685,101.520 194.244,100.200 194.022 C 98.880 193.799,95.640 193.435,93.000 193.212 C 90.360 192.989,87.210 192.643,86.000 192.442 C 81.479 191.693,78.979 191.539,79.483 192.043 C 79.742 192.302,82.800 192.845,86.277 193.249 C 89.755 193.654,94.220 194.173,96.200 194.404 C 98.180 194.635,103.310 195.175,107.600 195.604 C 123.035 197.148,134.818 198.433,140.800 199.226 C 142.670 199.473,146.360 199.826,149.000 200.010 C 151.640 200.194,156.050 200.616,158.800 200.948 C 165.309 201.734,170.928 202.349,177.600 203.006 C 187.866 204.017,195.021 204.787,200.400 205.458 C 203.370 205.829,206.868 206.148,208.173 206.166 L 210.546 206.200 213.857 200.800 C 215.678 197.830,217.176 195.268,217.184 195.108 C 217.193 194.947,217.875 193.777,218.699 192.508 C 219.524 191.238,220.420 189.750,220.692 189.200 C 220.963 188.650,221.413 187.847,221.692 187.415 C 222.300 186.475,223.764 184.033,224.775 182.274 C 225.177 181.573,226.995 178.480,228.814 175.400 C 230.633 172.320,233.864 166.830,235.993 163.200 C 246.298 145.634,248.042 142.696,248.985 141.308 C 249.543 140.487,250.000 139.641,250.000 139.429 C 250.000 139.217,250.425 138.403,250.944 137.622 C 252.540 135.217,259.600 123.249,259.600 122.947 C 259.600 122.791,259.850 122.379,260.155 122.031 C 260.461 121.684,261.194 120.500,261.786 119.400 C 262.377 118.300,263.384 116.590,264.023 115.600 C 264.661 114.610,265.370 113.377,265.597 112.860 C 265.825 112.342,266.617 110.992,267.358 109.860 C 268.676 107.845,272.813 100.789,275.600 95.801 C 276.370 94.423,277.194 93.049,277.431 92.748 C 277.668 92.446,278.734 90.670,279.799 88.800 C 280.864 86.930,281.966 85.125,282.249 84.790 C 282.531 84.454,282.883 83.419,283.032 82.490 C 283.289 80.881,285.600 79.742,285.600 81.224 C 285.600 81.457,285.375 81.512,285.100 81.347 C 284.746 81.134,284.757 81.240,285.137 81.709 C 285.532 82.195,285.637 83.486,285.537 86.586 C 285.422 90.127,285.496 90.801,286.000 90.801 C 286.505 90.802,286.580 90.102,286.475 86.401 C 286.388 83.345,286.205 81.998,285.875 81.994 C 285.519 81.989,285.523 81.910,285.888 81.677 C 286.627 81.208,284.596 79.200,283.384 79.200 C 282.843 79.200,282.384 79.335,282.364 79.500 M279.700 80.665 C 279.069 80.920,279.035 82.122,279.665 81.912 C 279.921 81.826,280.175 81.451,280.230 81.078 C 280.284 80.705,280.300 80.414,280.265 80.432 C 280.229 80.449,279.975 80.554,279.700 80.665 M258.800 92.400 C 258.800 92.840,259.010 93.200,259.267 93.200 C 259.523 93.200,259.615 93.082,259.470 92.937 C 259.325 92.792,259.407 92.432,259.652 92.137 C 259.994 91.725,259.947 91.600,259.449 91.600 C 259.067 91.600,258.800 91.929,258.800 92.400 M286.565 98.600 C 286.566 102.560,286.626 104.126,286.698 102.080 C 286.771 100.034,286.771 96.794,286.698 94.880 C 286.624 92.966,286.565 94.640,286.565 98.600 M255.600 93.800 C 255.600 94.057,255.870 94.267,256.200 94.267 C 256.530 94.267,256.800 94.057,256.800 93.800 C 256.800 93.543,256.530 93.333,256.200 93.333 C 255.870 93.333,255.600 93.543,255.600 93.800 M241.867 101.067 C 241.464 101.469,241.547 102.400,241.986 102.400 C 242.198 102.400,242.565 102.040,242.800 101.600 C 243.227 100.801,242.530 100.403,241.867 101.067 M238.884 103.015 C 238.460 103.496,238.470 103.600,238.941 103.600 C 239.257 103.600,239.618 103.330,239.745 103.000 C 240.036 102.241,239.560 102.249,238.884 103.015 M224.545 110.678 C 224.977 111.111,226.000 111.171,226.000 110.765 C 226.000 110.564,225.610 110.400,225.133 110.400 C 224.657 110.400,224.392 110.525,224.545 110.678 M218.629 113.829 C 217.868 114.589,217.841 114.800,218.504 114.800 C 218.781 114.800,219.232 114.440,219.507 114.000 C 220.101 113.049,219.521 112.936,218.629 113.829 M204.480 121.680 C 203.811 122.349,203.880 122.629,204.714 122.629 C 205.133 122.629,205.429 122.333,205.429 121.914 C 205.429 121.080,205.149 121.011,204.480 121.680 M201.594 123.500 C 201.589 124.098,201.531 124.113,201.200 123.600 C 200.869 123.087,200.811 123.102,200.806 123.700 C 200.803 124.085,201.070 124.400,201.400 124.400 C 201.733 124.400,202.000 124.044,202.000 123.600 C 202.000 123.160,201.910 122.800,201.800 122.800 C 201.690 122.800,201.597 123.115,201.594 123.500 M187.238 130.776 C 186.871 131.004,186.846 131.181,187.157 131.374 C 187.401 131.524,187.603 131.502,187.606 131.324 C 187.609 131.146,187.787 131.270,188.000 131.600 C 188.334 132.117,188.389 132.107,188.394 131.524 C 188.402 130.671,187.916 130.357,187.238 130.776 M184.006 132.789 C 183.654 133.446,183.693 133.600,184.210 133.600 C 184.560 133.600,184.745 133.435,184.621 133.234 C 184.497 133.033,184.612 132.796,184.878 132.707 C 185.237 132.588,185.242 132.473,184.900 132.262 C 184.638 132.100,184.254 132.326,184.006 132.789 M181.251 133.967 C 180.949 134.154,180.769 134.503,180.851 134.741 C 180.941 135.002,181.218 135.039,181.549 134.833 C 181.851 134.646,182.031 134.297,181.949 134.059 C 181.859 133.798,181.582 133.761,181.251 133.967 M166.626 141.958 C 166.504 142.155,166.656 142.413,166.963 142.531 C 167.550 142.756,168.000 142.496,168.000 141.933 C 168.000 141.487,166.905 141.506,166.626 141.958 M160.667 145.067 C 160.147 145.587,160.409 146.091,160.961 145.632 C 161.392 145.275,161.570 145.287,161.730 145.683 C 161.861 146.012,161.948 145.945,161.968 145.500 C 161.999 144.812,161.190 144.543,160.667 145.067 M150.394 151.500 C 150.389 152.098,150.331 152.113,150.000 151.600 C 149.669 151.087,149.611 151.102,149.606 151.700 C 149.603 152.085,149.870 152.400,150.200 152.400 C 150.533 152.400,150.800 152.044,150.800 151.600 C 150.800 151.160,150.710 150.800,150.600 150.800 C 150.490 150.800,150.397 151.115,150.394 151.500 M147.134 152.669 C 146.405 152.862,145.788 154.000,146.413 154.000 C 146.626 154.000,146.800 153.809,146.800 153.576 C 146.800 153.343,146.961 153.252,147.158 153.374 C 147.355 153.496,147.619 153.326,147.746 152.998 C 147.872 152.669,147.936 152.421,147.887 152.446 C 147.839 152.472,147.500 152.572,147.134 152.669 M143.467 154.267 C 143.024 154.709,143.165 155.067,143.783 155.067 C 144.103 155.067,144.458 154.827,144.570 154.533 C 144.780 153.987,143.947 153.786,143.467 154.267 M129.600 162.400 C 129.283 162.596,129.156 162.889,129.318 163.052 C 129.481 163.214,129.823 163.137,130.080 162.880 C 130.684 162.276,130.347 161.938,129.600 162.400 M108.800 173.429 C 108.800 174.222,110.072 174.028,110.297 173.200 C 110.443 172.667,110.414 172.667,110.037 173.200 C 109.749 173.607,109.610 173.639,109.606 173.300 C 109.603 173.025,109.420 172.800,109.200 172.800 C 108.980 172.800,108.800 173.083,108.800 173.429 M88.979 183.966 C 89.103 184.167,88.988 184.404,88.723 184.492 C 88.418 184.594,88.491 184.749,88.920 184.914 C 89.418 185.105,89.600 184.964,89.600 184.387 C 89.600 183.954,89.409 183.600,89.176 183.600 C 88.943 183.600,88.855 183.765,88.979 183.966 M77.733 190.612 C 77.733 190.916,77.868 191.082,78.033 190.980 C 78.197 190.878,78.405 191.016,78.496 191.287 C 78.587 191.560,78.754 191.418,78.871 190.970 C 79.019 190.405,78.880 190.146,78.408 190.111 C 78.037 190.083,77.733 190.308,77.733 190.612 M80.893 201.600 C 81.362 202.351,82.000 202.680,82.000 202.171 C 82.000 201.873,80.925 200.800,80.625 200.800 C 80.498 200.800,80.618 201.160,80.893 201.600 M88.406 215.086 C 88.419 215.770,89.187 216.654,89.200 216.000 C 89.211 215.467,89.255 215.467,89.600 216.000 C 89.844 216.377,89.990 216.419,89.994 216.114 C 89.997 215.847,89.640 215.435,89.200 215.200 C 88.760 214.965,88.403 214.913,88.406 215.086 M90.681 218.266 C 90.866 218.749,90.791 218.842,90.406 218.604 C 90.054 218.386,89.972 218.431,90.162 218.738 C 90.631 219.497,91.555 219.262,91.490 218.400 C 91.457 217.960,91.204 217.600,90.927 217.600 C 90.623 217.600,90.526 217.863,90.681 218.266 M96.284 229.600 C 96.399 230.040,96.787 230.386,97.147 230.368 C 97.561 230.348,97.617 230.263,97.300 230.135 C 97.025 230.024,96.800 229.678,96.800 229.367 C 96.800 229.055,96.637 228.800,96.437 228.800 C 96.238 228.800,96.169 229.160,96.284 229.600 M97.776 232.439 C 97.672 232.607,97.770 232.858,97.993 232.996 C 98.217 233.134,98.403 233.102,98.406 232.924 C 98.409 232.746,98.582 232.868,98.788 233.195 C 99.090 233.672,99.152 233.626,99.102 232.962 C 99.042 232.161,98.162 231.815,97.776 232.439 M104.000 243.376 C 104.000 243.977,104.718 244.615,105.036 244.297 C 105.315 244.018,104.763 242.800,104.357 242.800 C 104.161 242.800,104.000 243.059,104.000 243.376 M286.800 248.987 C 286.800 252.901,286.888 253.541,287.400 253.345 C 287.883 253.159,288.000 252.261,288.000 248.757 C 288.000 245.151,287.897 244.400,287.400 244.400 C 286.902 244.400,286.800 245.176,286.800 248.987 M105.600 246.472 C 105.600 246.637,105.921 246.944,106.314 247.154 C 106.870 247.452,107.029 247.385,107.029 246.854 C 107.029 246.465,106.721 246.171,106.314 246.171 C 105.921 246.171,105.600 246.307,105.600 246.472 M113.712 260.777 C 113.683 261.156,113.916 261.467,114.230 261.467 C 114.942 261.467,114.982 260.556,114.282 260.287 C 113.990 260.175,113.741 260.389,113.712 260.777 M122.800 277.776 C 122.800 278.377,123.518 279.015,123.836 278.697 C 124.115 278.418,123.563 277.200,123.157 277.200 C 122.961 277.200,122.800 277.459,122.800 277.776 M130.400 291.624 C 130.400 291.857,130.580 291.936,130.800 291.800 C 131.020 291.664,131.200 291.833,131.200 292.176 C 131.200 293.095,131.819 292.936,131.890 292.000 C 131.931 291.454,131.704 291.200,131.175 291.200 C 130.749 291.200,130.400 291.391,130.400 291.624 M137.322 303.001 C 136.946 303.409,137.009 303.561,137.622 303.722 C 138.108 303.849,138.400 303.723,138.400 303.386 C 138.400 302.597,137.870 302.408,137.322 303.001 " stroke="none" fill="#5c8c04" fill-rule="evenodd"></path><path id="path4" d="M282.800 83.576 C 282.800 84.003,282.645 84.448,282.456 84.565 C 282.267 84.682,281.159 86.448,279.993 88.489 C 278.828 90.530,277.678 92.446,277.437 92.748 C 277.197 93.049,276.370 94.423,275.600 95.801 C 272.813 100.789,268.676 107.845,267.358 109.860 C 266.617 110.992,265.825 112.342,265.597 112.860 C 265.370 113.377,264.661 114.610,264.023 115.600 C 263.384 116.590,262.377 118.300,261.786 119.400 C 261.194 120.500,260.461 121.684,260.155 122.031 C 259.850 122.379,259.600 122.791,259.600 122.947 C 259.600 123.249,252.540 135.217,250.944 137.622 C 250.425 138.403,250.000 139.217,250.000 139.429 C 250.000 139.641,249.543 140.487,248.985 141.308 C 248.042 142.696,246.298 145.634,235.993 163.200 C 233.864 166.830,230.633 172.320,228.814 175.400 C 226.995 178.480,225.177 181.573,224.775 182.274 C 223.764 184.033,222.300 186.475,221.692 187.415 C 221.413 187.847,220.963 188.650,220.692 189.200 C 220.420 189.750,219.524 191.238,218.699 192.508 C 217.875 193.777,217.193 194.947,217.184 195.108 C 217.176 195.268,215.683 197.830,213.868 200.800 L 210.568 206.200 208.784 206.453 L 207.000 206.706 208.988 206.653 C 210.946 206.601,210.994 206.568,212.188 204.512 C 212.855 203.364,214.345 200.801,215.500 198.816 C 216.655 196.830,217.600 195.113,217.600 194.999 C 217.600 194.885,218.197 193.939,218.926 192.896 C 219.656 191.853,220.522 190.460,220.853 189.800 C 221.581 188.344,222.201 187.295,223.900 184.646 C 224.615 183.531,225.200 182.477,225.200 182.305 C 225.200 182.133,225.851 181.066,226.646 179.934 C 227.441 178.803,228.347 177.320,228.659 176.639 C 228.970 175.957,229.580 174.860,230.014 174.200 C 230.447 173.540,231.080 172.460,231.419 171.800 C 231.759 171.140,232.913 169.160,233.984 167.400 C 235.056 165.640,236.421 163.300,237.019 162.200 C 237.617 161.100,238.593 159.480,239.188 158.600 C 239.783 157.720,241.334 155.141,242.635 152.868 C 243.936 150.595,245.396 148.075,245.881 147.268 C 246.365 146.461,246.888 145.530,247.043 145.200 C 247.198 144.870,247.521 144.354,247.762 144.052 C 248.003 143.751,248.830 142.371,249.600 140.984 C 251.745 137.123,255.246 131.183,256.427 129.400 C 257.011 128.520,258.098 126.642,258.844 125.226 C 259.590 123.810,260.349 122.460,260.532 122.226 C 260.949 121.691,262.788 118.584,268.242 109.200 C 270.607 105.130,273.101 100.900,273.784 99.800 C 274.467 98.700,275.290 97.320,275.613 96.733 C 275.936 96.146,277.280 93.842,278.600 91.614 C 279.920 89.385,281.256 87.077,281.568 86.484 C 281.881 85.891,282.376 85.167,282.668 84.875 C 283.173 84.369,283.424 82.800,283.000 82.800 C 282.890 82.800,282.800 83.149,282.800 83.576 M285.522 98.099 C 285.606 103.071,285.797 105.555,286.122 105.886 C 286.493 106.262,286.600 104.625,286.600 98.586 C 286.600 91.932,286.513 90.800,286.000 90.799 C 285.484 90.799,285.417 91.822,285.522 98.099 M286.164 108.130 C 285.847 108.493,285.861 108.754,286.214 109.084 C 286.587 109.432,286.700 109.312,286.700 108.569 C 286.700 108.036,286.678 107.607,286.650 107.615 C 286.623 107.624,286.404 107.855,286.164 108.130 M79.428 192.341 C 80.098 193.063,80.940 193.306,83.828 193.610 C 89.844 194.243,90.924 193.964,85.319 193.226 C 82.414 192.843,79.714 192.286,79.319 191.988 C 78.816 191.610,78.849 191.716,79.428 192.341 M92.000 194.253 C 95.064 194.695,103.183 195.649,107.000 196.015 C 109.420 196.247,112.750 196.601,114.400 196.801 C 116.050 197.001,118.300 197.149,119.400 197.130 C 121.936 197.085,119.631 196.789,107.600 195.614 C 103.090 195.173,98.320 194.631,97.000 194.409 C 95.680 194.187,93.790 194.028,92.800 194.057 C 91.810 194.085,91.450 194.174,92.000 194.253 M123.400 197.580 C 127.578 198.265,132.260 198.792,133.800 198.752 C 135.698 198.702,128.222 197.667,124.200 197.422 C 121.705 197.270,121.618 197.288,123.400 197.580 M79.467 197.867 C 78.981 198.353,79.190 198.779,79.800 198.545 C 80.130 198.418,80.400 198.154,80.400 197.957 C 80.400 197.538,79.849 197.484,79.467 197.867 M139.200 199.423 C 141.070 199.722,143.320 199.956,144.200 199.943 C 145.267 199.928,144.667 199.740,142.400 199.377 C 140.530 199.078,138.280 198.844,137.400 198.857 C 136.333 198.872,136.933 199.060,139.200 199.423 M150.882 200.397 C 152.797 200.581,154.538 200.838,154.751 200.970 C 154.964 201.101,158.257 201.482,162.069 201.817 C 165.881 202.151,169.630 202.584,170.400 202.779 C 171.170 202.974,174.140 203.223,177.000 203.334 L 182.200 203.534 177.200 203.010 C 170.041 202.260,164.554 201.643,158.600 200.920 C 155.740 200.572,152.050 200.237,150.400 200.175 L 147.400 200.063 150.882 200.397 M81.000 200.672 C 81.440 200.793,81.949 201.097,82.130 201.346 C 82.349 201.646,82.406 201.596,82.299 201.200 C 82.210 200.870,81.701 200.567,81.169 200.526 C 80.405 200.468,80.369 200.499,81.000 200.672 M183.205 203.974 C 183.757 204.142,186.907 204.501,190.205 204.771 C 193.502 205.041,197.807 205.518,199.770 205.831 C 201.734 206.144,204.164 206.381,205.170 206.358 C 207.425 206.305,201.703 205.451,194.800 204.810 C 192.270 204.575,188.670 204.208,186.800 203.995 C 182.878 203.547,181.779 203.541,183.205 203.974 M87.102 211.866 C 87.379 211.977,87.511 212.221,87.396 212.407 C 87.281 212.593,87.333 212.835,87.510 212.945 C 87.688 213.055,87.860 212.797,87.892 212.372 C 87.929 211.881,87.705 211.611,87.275 211.632 C 86.855 211.651,86.790 211.740,87.102 211.866 M94.908 226.426 C 94.872 226.906,95.045 227.185,95.323 227.093 C 96.004 226.866,96.166 225.600,95.514 225.600 C 95.215 225.600,94.942 225.972,94.908 226.426 M98.200 231.872 C 98.640 231.993,99.149 232.297,99.330 232.546 C 99.549 232.846,99.606 232.796,99.499 232.400 C 99.410 232.070,98.901 231.767,98.369 231.726 C 97.605 231.668,97.569 231.699,98.200 231.872 M287.124 253.500 C 287.056 253.665,287.092 257.130,287.205 261.200 L 287.410 268.600 287.605 260.900 C 287.773 254.253,287.642 252.241,287.124 253.500 " stroke="none" fill="#466804" fill-rule="evenodd"></path></g></svg>