<?xml version="1.0" standalone="yes"?>
<svg xmlns="http://www.w3.org/2000/svg" width="256" height="256">
<path style="fill:#47714d; stroke:none;" d="M0 0L0 256L256 256L256 0L0 0z"/>
<path style="fill:#affc0a; stroke:none;" d="M194 31L107 78.3086L46 111L46 112C68.6536 116.206 92.1592 116.408 115 119.424C121.151 120.237 136.113 124.413 141.471 120.971C145.8 118.19 148.601 110.331 151.2 106C158.765 93.3912 166.038 80.6103 173.6 68C179.27 58.5447 193.675 41.9649 194 31z"/>
<path style="fill:#b4cc82; stroke:none;" d="M195 31L196 32L195 31z"/>
<path style="fill:#6d9e05; stroke:none;" d="M194 32L195 33L194 32z"/>
<path style="fill:#020201; stroke:none;" d="M195 32C181.893 53.4154 169.155 75.1867 156.719 97C152.867 103.757 143.373 114.093 143.057 122C142.793 128.609 152.189 137.847 155.859 143C168.387 160.592 180.391 186.273 197 200L196 84L196 49L195 32z"/>
<path style="fill:#b4cc82; stroke:none;" d="M188 34L189 35L188 34z"/>
<path style="fill:#6d9e05; stroke:none;" d="M193 34L194 35L193 34z"/>
<path style="fill:#b4cc82; stroke:none;" d="M186 35L187 36L186 35z"/>
<path style="fill:#6d9e05; stroke:none;" d="M192 35L193 36L192 35z"/>
<path style="fill:#b4cc82; stroke:none;" d="M184 36L185 37L184 36z"/>
<path style="fill:#47714d; stroke:none;" d="M192 36L193 37L192 36z"/>
<path style="fill:#6d9e05; stroke:none;" d="M191 37L192 38L191 37M190 39L191 40L190 39z"/>
<path style="fill:#b4cc82; stroke:none;" d="M177 40L178 41L177 40M175 41L176 42L175 41z"/>
<path style="fill:#47714d; stroke:none;" d="M189 41L190 42L189 41z"/>
<path style="fill:#b4cc82; stroke:none;" d="M173 42L174 43L173 42z"/>
<path style="fill:#6d9e05; stroke:none;" d="M188 42L189 43L188 42z"/>
<path style="fill:#b4cc82; stroke:none;" d="M171 43L172 44L171 43z"/>
<path style="fill:#47714d; stroke:none;" d="M188 43L189 44L188 43z"/>
<path style="fill:#6d9e05; stroke:none;" d="M187 44L188 45L187 44z"/>
<path style="fill:#47714d; stroke:none;" d="M186 46L187 47L186 46z"/>
<path style="fill:#b4cc82; stroke:none;" d="M164 47L165 48L164 47z"/>
<path style="fill:#6d9e05; stroke:none;" d="M185 47L186 48L185 47z"/>
<path style="fill:#b4cc82; stroke:none;" d="M162 48L163 49L162 48z"/>
<path style="fill:#47714d; stroke:none;" d="M185 48L186 49L185 48z"/>
<path style="fill:#6d9e05; stroke:none;" d="M184 49L185 50L184 49z"/>
<path style="fill:#47714d; stroke:none;" d="M183 51L184 52L183 51z"/>
<path style="fill:#6d9e05; stroke:none;" d="M182 52L183 53L182 52z"/>
<path style="fill:#b4cc82; stroke:none;" d="M153 53L154 54L153 53z"/>
<path style="fill:#47714d; stroke:none;" d="M182 53L183 54L182 53z"/>
<path style="fill:#b4cc82; stroke:none;" d="M151 54L152 55L151 54z"/>
<path style="fill:#6d9e05; stroke:none;" d="M181 54L182 55L181 54z"/>
<path style="fill:#b4cc82; stroke:none;" d="M149 55L150 56L149 55M147 56L148 57L147 56z"/>
<path style="fill:#6d9e05; stroke:none;" d="M180 56L181 57L180 56M179 57L180 58L179 57z"/>
<path style="fill:#47714d; stroke:none;" d="M179 58L180 59L179 58z"/>
<path style="fill:#6d9e05; stroke:none;" d="M178 59L179 60L178 59z"/>
<path style="fill:#b4cc82; stroke:none;" d="M140 60L141 61L140 60M138 61L139 62L138 61z"/>
<path style="fill:#6d9e05; stroke:none;" d="M177 61L178 62L177 61z"/>
<path style="fill:#b4cc82; stroke:none;" d="M136 62L137 63L136 62M134 63L135 64L134 63z"/>
<path style="fill:#47714d; stroke:none;" d="M176 63L177 64L176 63z"/>
<path style="fill:#6d9e05; stroke:none;" d="M175 64L176 65L175 64z"/>
<path style="fill:#47714d; stroke:none;" d="M175 65L176 66L175 65z"/>
<path style="fill:#6d9e05; stroke:none;" d="M174 66L175 67L174 66z"/>
<path style="fill:#b4cc82; stroke:none;" d="M127 67L128 68L127 67M125 68L126 69L125 68z"/>
<path style="fill:#47714d; stroke:none;" d="M173 68L174 69L173 68z"/>
<path style="fill:#6d9e05; stroke:none;" d="M172 69L173 70L172 69z"/>
<path style="fill:#47714d; stroke:none;" d="M172 70L173 71L172 70z"/>
<path style="fill:#6d9e05; stroke:none;" d="M171 71L172 72L171 71z"/>
<path style="fill:#b4cc82; stroke:none;" d="M116 73L117 74L116 73z"/>
<path style="fill:#6d9e05; stroke:none;" d="M170 73L171 74L170 73z"/>
<path style="fill:#b4cc82; stroke:none;" d="M114 74L115 75L114 74z"/>
<path style="fill:#6d9e05; stroke:none;" d="M169 74L170 75L169 74z"/>
<path style="fill:#b4cc82; stroke:none;" d="M112 75L113 76L112 75z"/>
<path style="fill:#47714d; stroke:none;" d="M169 75L170 76L169 75z"/>
<path style="fill:#6d9e05; stroke:none;" d="M168 76L169 77L168 76M167 78L168 79L167 78z"/>
<path style="fill:#b4cc82; stroke:none;" d="M103 80L104 81L103 80z"/>
<path style="fill:#47714d; stroke:none;" d="M166 80L167 81L166 80z"/>
<path style="fill:#b4cc82; stroke:none;" d="M101 81L102 82L101 81z"/>
<path style="fill:#6d9e05; stroke:none;" d="M165 81L166 82L165 81z"/>
<path style="fill:#b4cc82; stroke:none;" d="M99 82L100 83L99 82z"/>
<path style="fill:#47714d; stroke:none;" d="M165 82L166 83L165 82z"/>
<path style="fill:#6d9e05; stroke:none;" d="M164 83L165 84L164 83z"/>
<path style="fill:#b4cc82; stroke:none;" d="M196 83L196 98L197 98L196 83z"/>
<path style="fill:#47714d; stroke:none;" d="M163 85L164 86L163 85z"/>
<path style="fill:#b4cc82; stroke:none;" d="M92 86L93 87L92 86z"/>
<path style="fill:#6d9e05; stroke:none;" d="M162 86L163 87L162 86z"/>
<path style="fill:#b4cc82; stroke:none;" d="M90 87L91 88L90 87z"/>
<path style="fill:#47714d; stroke:none;" d="M162 87L163 88L162 87z"/>
<path style="fill:#b4cc82; stroke:none;" d="M88 88L89 89L88 88z"/>
<path style="fill:#6d9e05; stroke:none;" d="M161 88L162 89L161 88z"/>
<path style="fill:#b4cc82; stroke:none;" d="M86 89L87 90L86 89z"/>
<path style="fill:#6d9e05; stroke:none;" d="M160 90L161 91L160 90M159 91L160 92L159 91z"/>
<path style="fill:#47714d; stroke:none;" d="M159 92L160 93L159 92z"/>
<path style="fill:#b4cc82; stroke:none;" d="M79 93L80 94L79 93z"/>
<path style="fill:#6d9e05; stroke:none;" d="M158 93L159 94L158 93z"/>
<path style="fill:#b4cc82; stroke:none;" d="M77 94L78 95L77 94M75 95L76 96L75 95z"/>
<path style="fill:#6d9e05; stroke:none;" d="M157 95L158 96L157 95z"/>
<path style="fill:#47714d; stroke:none;" d="M156 97L157 98L156 97z"/>
<path style="fill:#6d9e05; stroke:none;" d="M155 98L156 99L155 98z"/>
<path style="fill:#47714d; stroke:none;" d="M155 99L156 100L155 99z"/>
<path style="fill:#b4cc82; stroke:none;" d="M66 100L67 101L66 100z"/>
<path style="fill:#6d9e05; stroke:none;" d="M154 100L155 101L154 100z"/>
<path style="fill:#b4cc82; stroke:none;" d="M64 101L65 102L64 101z"/>
<path style="fill:#47714d; stroke:none;" d="M153 102L154 103L153 102z"/>
<path style="fill:#6d9e05; stroke:none;" d="M152 103L153 104L152 103z"/>
<path style="fill:#47714d; stroke:none;" d="M152 104L153 105L152 104z"/>
<path style="fill:#b4cc82; stroke:none;" d="M57 105L58 106L57 105z"/>
<path style="fill:#6d9e05; stroke:none;" d="M151 105L152 106L151 105z"/>
<path style="fill:#b4cc82; stroke:none;" d="M55 106L56 107L55 106M53 107L54 108L53 107z"/>
<path style="fill:#47714d; stroke:none;" d="M150 107L151 108L150 107z"/>
<path style="fill:#b4cc82; stroke:none;" d="M51 108L52 109L51 108z"/>
<path style="fill:#6d9e05; stroke:none;" d="M149 108L150 109L149 108z"/>
<path style="fill:#47714d; stroke:none;" d="M149 109L150 110L149 109z"/>
<path style="fill:#6d9e05; stroke:none;" d="M148 110L149 111L148 110M46 112L46 113L49 113L46 112M147 112L148 113L147 112z"/>
<path style="fill:#020201; stroke:none;" d="M46 113L61.1397 142L94 202L95 202L141 123C110.819 117.397 76.6904 113.633 46 113z"/>
<path style="fill:#47714d; stroke:none;" d="M52 113L52 114L55 114L52 113z"/>
<path style="fill:#6d9e05; stroke:none;" d="M55 113L55 114L59 114L55 113M146 113L147 114L146 113z"/>
<path style="fill:#47714d; stroke:none;" d="M62.6667 114.333L63.3333 114.667L62.6667 114.333z"/>
<path style="fill:#6d9e05; stroke:none;" d="M64 114L64 115L68 115L64 114z"/>
<path style="fill:#47714d; stroke:none;" d="M146 114L147 115L146 114z"/>
<path style="fill:#b4cc82; stroke:none;" d="M46 115L47 116L46 115z"/>
<path style="fill:#47714d; stroke:none;" d="M71 115L71 116L74 116L71 115z"/>
<path style="fill:#6d9e05; stroke:none;" d="M74 115L74 116L78 116L74 115M145 115L146 116L145 115z"/>
<path style="fill:#47714d; stroke:none;" d="M81.6667 116.333L82.3333 116.667L81.6667 116.333z"/>
<path style="fill:#6d9e05; stroke:none;" d="M83 116L83 117L87 117L83 116z"/>
<path style="fill:#b4cc82; stroke:none;" d="M47 117L48 118L47 117z"/>
<path style="fill:#47714d; stroke:none;" d="M90 117L90 118L93 118L90 117z"/>
<path style="fill:#6d9e05; stroke:none;" d="M93 117L93 118L97 118L93 117M144 117L145 118L144 117z"/>
<path style="fill:#47714d; stroke:none;" d="M100.667 118.333L101.333 118.667L100.667 118.333z"/>
<path style="fill:#6d9e05; stroke:none;" d="M102 118L102 119L106 119L102 118z"/>
<path style="fill:#47714d; stroke:none;" d="M109 119L109 120L112 120L109 119z"/>
<path style="fill:#6d9e05; stroke:none;" d="M112 119L112 120L116 120L112 119z"/>
<path style="fill:#47714d; stroke:none;" d="M143 119L144 120L143 119M119.667 120.333L120.333 120.667L119.667 120.333z"/>
<path style="fill:#6d9e05; stroke:none;" d="M121 120L121 121L125 121L121 120M142 120L143 121L142 120z"/>
<path style="fill:#47714d; stroke:none;" d="M128 121L128 122L131 122L128 121z"/>
<path style="fill:#6d9e05; stroke:none;" d="M131 121L131 122L135 122L131 121z"/>
<path style="fill:#47714d; stroke:none;" d="M142 121L143 122L142 121M138.667 122.333L139.333 122.667L138.667 122.333z"/>
<path style="fill:#6d9e05; stroke:none;" d="M140 122L140 125L144 126L140 122z"/>
<path style="fill:#47714d; stroke:none;" d="M142 123L143 124L142 123z"/>
<path style="fill:#b4cc82; stroke:none;" d="M51 124L52 125L51 124z"/>
<path style="fill:#affc0a; stroke:none;" d="M141 124L111.576 174L96 202L197 202L162.025 152L141 124z"/>
<path style="fill:#6d9e05; stroke:none;" d="M139 126L140 127L139 126z"/>
<path style="fill:#47714d; stroke:none;" d="M144 126L145 127L144 126M138 127L139 128L138 127z"/>
<path style="fill:#6d9e05; stroke:none;" d="M138 128L139 129L138 128M145 128L146 129L145 128z"/>
<path style="fill:#b4cc82; stroke:none;" d="M53 129L54 130L53 129z"/>
<path style="fill:#47714d; stroke:none;" d="M137 129L138 130L137 129M146 129L147 130L146 129z"/>
<path style="fill:#6d9e05; stroke:none;" d="M136 131L137 132L136 131M147 131L148 132L147 131z"/>
<path style="fill:#47714d; stroke:none;" d="M135 132L136 133L135 132z"/>
<path style="fill:#6d9e05; stroke:none;" d="M148 132L149 133L148 132z"/>
<path style="fill:#b4cc82; stroke:none;" d="M56 133L57 134L56 133z"/>
<path style="fill:#6d9e05; stroke:none;" d="M135 133L136 134L135 133z"/>
<path style="fill:#47714d; stroke:none;" d="M149 133L150 134L149 133M134 134L135 135L134 134z"/>
<path style="fill:#6d9e05; stroke:none;" d="M149 134L150 135L149 134M150 135L151 136L150 135M133 136L134 137L133 136z"/>
<path style="fill:#47714d; stroke:none;" d="M151 136L152 137L151 136z"/>
<path style="fill:#6d9e05; stroke:none;" d="M132 138L133 139L132 138M152 138L153 139L152 138z"/>
<path style="fill:#47714d; stroke:none;" d="M131 139L132 140L131 139M153 139L154 140L153 139z"/>
<path style="fill:#6d9e05; stroke:none;" d="M131 140L132 141L131 140M130 141L131 142L130 141M154 141L155 142L154 141z"/>
<path style="fill:#b4cc82; stroke:none;" d="M61 142L62 143L61 142z"/>
<path style="fill:#6d9e05; stroke:none;" d="M155 142L156 143L155 142M129 143L130 144L129 143z"/>
<path style="fill:#47714d; stroke:none;" d="M156 143L157 144L156 143z"/>
<path style="fill:#b4cc82; stroke:none;" d="M62 144L63 145L62 144z"/>
<path style="fill:#47714d; stroke:none;" d="M128 144L129 145L128 144z"/>
<path style="fill:#6d9e05; stroke:none;" d="M156 144L157 145L156 144M128 145L129 146L128 145M157 145L158 146L157 145z"/>
<path style="fill:#47714d; stroke:none;" d="M127 146L128 147L127 146M158 146L159 147L158 146z"/>
<path style="fill:#6d9e05; stroke:none;" d="M126 148L127 149L126 148M159 148L160 149L159 148z"/>
<path style="fill:#47714d; stroke:none;" d="M125 149L126 150L125 149M160 149L161 150L160 149z"/>
<path style="fill:#6d9e05; stroke:none;" d="M125 150L126 151L125 150z"/>
<path style="fill:#47714d; stroke:none;" d="M124 151L125 152L124 151z"/>
<path style="fill:#6d9e05; stroke:none;" d="M161 151L162 152L161 151M162 152L163 153L162 152z"/>
<path style="fill:#b4cc82; stroke:none;" d="M67 153L68 154L67 153z"/>
<path style="fill:#6d9e05; stroke:none;" d="M123 153L124 154L123 153z"/>
<path style="fill:#47714d; stroke:none;" d="M163 153L164 154L163 153z"/>
<path style="fill:#6d9e05; stroke:none;" d="M163 154L164 155L163 154z"/>
<path style="fill:#b4cc82; stroke:none;" d="M68 155L69 156L68 155z"/>
<path style="fill:#6d9e05; stroke:none;" d="M122 155L123 156L122 155M164 155L165 156L164 155z"/>
<path style="fill:#47714d; stroke:none;" d="M121 156L122 157L121 156M165 156L166 157L165 156z"/>
<path style="fill:#6d9e05; stroke:none;" d="M121 157L122 158L121 157M120 158L121 159L120 158M166 158L167 159L166 158z"/>
<path style="fill:#47714d; stroke:none;" d="M167 159L168 160L167 159z"/>
<path style="fill:#6d9e05; stroke:none;" d="M119 160L120 161L119 160z"/>
<path style="fill:#47714d; stroke:none;" d="M118 161L119 162L118 161z"/>
<path style="fill:#6d9e05; stroke:none;" d="M168 161L169 162L168 161z"/>
<path style="fill:#b4cc82; stroke:none;" d="M72 162L73 163L72 162z"/>
<path style="fill:#6d9e05; stroke:none;" d="M118 162L119 163L118 162M169 162L170 163L169 162z"/>
<path style="fill:#47714d; stroke:none;" d="M117 163L118 164L117 163M170 163L171 164L170 163z"/>
<path style="fill:#6d9e05; stroke:none;" d="M170 164L171 165L170 164M116 165L117 166L116 165M171 165L172 166L171 165z"/>
<path style="fill:#47714d; stroke:none;" d="M115 166L116 167L115 166M172 166L173 167L172 166z"/>
<path style="fill:#6d9e05; stroke:none;" d="M115 167L116 168L115 167z"/>
<path style="fill:#47714d; stroke:none;" d="M114 168L115 169L114 168z"/>
<path style="fill:#6d9e05; stroke:none;" d="M173 168L174 169L173 168z"/>
<path style="fill:#47714d; stroke:none;" d="M174 169L175 170L174 169z"/>
<path style="fill:#6d9e05; stroke:none;" d="M113 170L114 171L113 170z"/>
<path style="fill:#47714d; stroke:none;" d="M175 170L176 171L175 170z"/>
<path style="fill:#b4cc82; stroke:none;" d="M77 171L78 172L77 171z"/>
<path style="fill:#6d9e05; stroke:none;" d="M175 171L176 172L175 171M112 172L113 173L112 172M176 172L177 173L176 172z"/>
<path style="fill:#b4cc82; stroke:none;" d="M78 173L79 174L78 173z"/>
<path style="fill:#47714d; stroke:none;" d="M111 173L112 174L111 173M177 173L178 174L177 173z"/>
<path style="fill:#6d9e05; stroke:none;" d="M111 174L112 175L111 174M110 175L111 176L110 175M178 175L179 176L178 175z"/>
<path style="fill:#47714d; stroke:none;" d="M179 176L180 177L179 176z"/>
<path style="fill:#6d9e05; stroke:none;" d="M109 177L110 178L109 177z"/>
<path style="fill:#47714d; stroke:none;" d="M108 178L109 179L108 178z"/>
<path style="fill:#6d9e05; stroke:none;" d="M180 178L181 179L180 178M108 179L109 180L108 179M181 179L182 180L181 179z"/>
<path style="fill:#b4cc82; stroke:none;" d="M82 180L83 181L82 180z"/>
<path style="fill:#47714d; stroke:none;" d="M107 180L108 181L107 180M182 180L183 181L182 180z"/>
<path style="fill:#6d9e05; stroke:none;" d="M182 181L183 182L182 181z"/>
<path style="fill:#b4cc82; stroke:none;" d="M83 182L84 183L83 182z"/>
<path style="fill:#6d9e05; stroke:none;" d="M106 182L107 183L106 182M183 182L184 183L183 182z"/>
<path style="fill:#b4cc82; stroke:none;" d="M197 182L197 195L198 195L197 182z"/>
<path style="fill:#47714d; stroke:none;" d="M105 183L106 184L105 183M184 183L185 184L184 183z"/>
<path style="fill:#6d9e05; stroke:none;" d="M105 184L106 185L105 184z"/>
<path style="fill:#47714d; stroke:none;" d="M104 185L105 186L104 185z"/>
<path style="fill:#6d9e05; stroke:none;" d="M185 185L186 186L185 185z"/>
<path style="fill:#47714d; stroke:none;" d="M186 186L187 187L186 186z"/>
<path style="fill:#6d9e05; stroke:none;" d="M103 187L104 188L103 187M187 188L188 189L187 188M102 189L103 190L102 189M188 189L189 190L188 189z"/>
<path style="fill:#47714d; stroke:none;" d="M101 190L102 191L101 190M189 190L190 191L189 190z"/>
<path style="fill:#b4cc82; stroke:none;" d="M88 191L89 192L88 191z"/>
<path style="fill:#6d9e05; stroke:none;" d="M101 191L102 192L101 191M189 191L190 192L189 191M100 192L101 193L100 192M190 192L191 193L190 192z"/>
<path style="fill:#b4cc82; stroke:none;" d="M89 193L90 194L89 193z"/>
<path style="fill:#47714d; stroke:none;" d="M191 193L192 194L191 193z"/>
<path style="fill:#6d9e05; stroke:none;" d="M99 194L100 195L99 194z"/>
<path style="fill:#47714d; stroke:none;" d="M98 195L99 196L98 195z"/>
<path style="fill:#6d9e05; stroke:none;" d="M192 195L193 196L192 195M98 196L99 197L98 196z"/>
<path style="fill:#47714d; stroke:none;" d="M193 196L194 197L193 196M97 197L98 198L97 197z"/>
<path style="fill:#6d9e05; stroke:none;" d="M194 198L195 199L194 198M96 199L97 200L96 199M195 199L196 200L195 199z"/>
<path style="fill:#b4cc82; stroke:none;" d="M93 200L94 201L93 200z"/>
<path style="fill:#47714d; stroke:none;" d="M95 200L96 201L95 200z"/>
<path style="fill:#6d9e05; stroke:none;" d="M95 201L96 202L95 201z"/>
<path style="fill:#b4cc82; stroke:none;" d="M197 201L198 202L197 201M95 202L95 203L132 203C122.202 198.889 105.649 202 95 202M133 202L134 203L133 202M167 202L168 203L167 202z"/>
</svg>
