<svg width="64" height="64" viewBox="0 0 64 64" fill="none" xmlns="http://www.w3.org/2000/svg">
<circle cx="32" cy="32" r="32" fill="white"/>
<path d="M13.1714 22.4414L3.46688 17.5005C2.70779 18.9919 2.06131 20.5555 1.54688 22.1482L11.9092 25.4988C12.2479 24.4513 12.6724 23.4233 13.1722 22.4422L13.1714 22.4414Z" fill="black"/>
<path d="M21.4165 13.7339L26.7917 22.9952C27.5767 22.5399 28.4168 22.1899 29.2909 21.955L26.5089 11.6138C27.217 11.4234 27.9364 11.2662 28.6598 11.152L26.9505 0.395996C25.297 0.658476 23.654 1.05463 22.0662 1.57229L25.3902 11.7596C24.3329 12.1047 23.3033 12.5333 22.3117 13.0404L17.4258 3.50363C15.94 4.26514 14.5028 5.1498 13.1523 6.13571L19.5726 14.932C20.164 14.501 20.7821 14.1017 21.4157 13.733L21.4165 13.7339Z" fill="black"/>
<path d="M50.2601 21.4058L41.002 26.7858C41.4581 27.57 41.808 28.4109 42.0438 29.2834L52.3843 26.4966C52.5746 27.2047 52.7318 27.9232 52.8469 28.6459L63.6013 26.9333C63.338 25.2806 62.9411 23.6369 62.4218 22.0482L52.236 25.3786C51.8901 24.3214 51.4615 23.2926 50.9536 22.301L60.4872 17.4087C59.7257 15.9245 58.8394 14.4874 57.8534 13.1377L49.0595 19.562C49.4913 20.1534 49.8907 20.7707 50.2593 21.405L50.2601 21.4058Z" fill="black"/>
<path d="M46.4849 3.45955C44.9919 2.70128 43.4283 2.05561 41.8372 1.54199L38.4922 11.9059C39.5389 12.2437 40.5677 12.6682 41.5504 13.1673L46.4849 3.45874V3.45955Z" fill="black"/>
<path d="M42.6184 13.5439L37.1816 22.9794C37.9691 23.4331 38.695 23.9888 39.3406 24.632L54.5889 9.33207C53.4061 8.15334 52.1212 7.05886 50.7699 6.07861L44.4809 14.7518C43.8814 14.3176 43.2608 13.9133 42.6192 13.5431L42.6184 13.5439Z" fill="black"/>
<path d="M13.5503 21.3721L22.9835 26.8145C23.4371 26.0278 23.9945 25.3011 24.6386 24.6547L9.34494 9.40088C8.16539 10.5837 7.0701 11.8677 6.08984 13.2182L14.7598 19.5112C14.3256 20.1099 13.9205 20.7304 13.5503 21.3721Z" fill="black"/>
<path d="M35.301 10.9683L36.9463 0.380758C35.3204 0.127999 33.6564 0 31.9997 0H31.9746V21.6011H31.9997C32.9103 21.6011 33.8112 21.7178 34.678 21.9478L37.4713 11.4219C36.7568 11.2324 36.0325 11.0825 35.301 10.9683V10.9683Z" fill="black"/>
<path d="M21.9488 29.3172L11.4244 26.5166C11.2341 27.2311 11.0834 27.9554 10.9691 28.6869L0.383191 27.0367C0.128811 28.6683 0 30.3388 0 32.0003H21.6013C21.6013 31.0881 21.7187 30.1848 21.9496 29.3172H21.9488Z" fill="black"/>
<path d="M50.8289 41.5584L60.5335 46.4993C61.2926 45.0079 61.939 43.4443 62.4535 41.8516L52.0911 38.501C51.7525 39.5485 51.328 40.5765 50.8281 41.5576L50.8289 41.5584Z" fill="black"/>
<path d="M42.5854 50.2647L37.2102 41.0034C36.4252 41.4587 35.5851 41.8087 34.7109 42.0436L37.4929 52.3848C36.7841 52.5752 36.0655 52.7324 35.342 52.8466L37.0506 63.6018C38.7041 63.3393 40.347 62.9432 41.9349 62.4255L38.6109 52.2382C39.6689 51.8931 40.6978 51.4645 41.6894 50.9574L46.5753 60.4942C48.0611 59.7326 49.4982 58.848 50.8487 57.8621L44.4284 49.0658C43.837 49.4967 43.2189 49.8961 42.5854 50.2647V50.2647Z" fill="black"/>
<path d="M13.7416 42.5939L23.0006 37.2139C22.5445 36.4297 22.1945 35.5888 21.9587 34.7163L11.6182 37.5031C11.4279 36.7951 11.2707 36.0765 11.1557 35.3539L0.400391 37.0665C0.663683 38.7191 1.06065 40.3629 1.57994 41.9515L11.7657 38.6211C12.1116 39.6783 12.5402 40.7072 13.0481 41.6988L3.51453 46.5911C4.27605 48.0752 5.16233 49.5124 6.14826 50.8621L14.9422 44.4378C14.5104 43.8464 14.111 43.2291 13.7424 42.5948L13.7416 42.5939Z" fill="black"/>
<path d="M17.5156 60.5407C19.0087 61.299 20.5722 61.9446 22.1633 62.4583L25.5084 52.0944C24.4617 51.7565 23.4328 51.332 22.4501 50.833L17.5156 60.5415V60.5407Z" fill="black"/>
<path d="M21.3826 50.4563L26.8193 41.0208C26.0319 40.5671 25.306 40.0114 24.6604 39.3682L9.41211 54.6681C10.5949 55.8469 11.8798 56.9413 13.2311 57.9216L19.5201 49.2484C20.1196 49.6826 20.7401 50.0869 21.3818 50.4571L21.3826 50.4563Z" fill="black"/>
<path d="M50.4496 42.6275L41.0164 37.1851C40.5627 37.9717 40.0054 38.6984 39.3613 39.3448L54.6541 54.5995C55.8337 53.4167 56.929 52.1326 57.9092 50.7822L49.2392 44.4891C49.6735 43.8904 50.0785 43.2699 50.4488 42.6283L50.4496 42.6275Z" fill="black"/>
<path d="M29.3226 42.0522L26.5293 52.5782C27.2438 52.7677 27.9681 52.9176 28.6996 53.0318L27.0551 63.6193C28.681 63.8721 30.345 64.0001 32.0017 64.0001H32.0268V42.399H32.0017C31.0911 42.399 30.1902 42.2823 29.3234 42.0522H29.3226Z" fill="black"/>
<path d="M42.3991 32C42.3991 32.9122 42.2817 33.8147 42.0508 34.6831L52.5752 37.4837C52.7655 36.7692 52.9162 36.0449 53.0305 35.3134L63.6172 36.9644C63.8716 35.3328 64.0004 33.6624 64.0004 32.0008H42.3991V32Z" fill="black"/>
</svg>
