<svg xmlns="http://www.w3.org/2000/svg" width="24" height="24" viewBox="0 0 24 24" fill="none">
<rect width="24" height="24" rx="12" fill="white"/>
<path d="M12.9286 6.08461L13.3912 3.1068C12.934 3.036 12.466 3 11.9998 3H11.9926V9.07502H11.9998C12.256 9.07502 12.5092 9.10802 12.7534 9.17282L13.5394 6.21241C13.3384 6.15901 13.1344 6.11701 12.9292 6.08461H12.9286Z" fill="black"/>
<path d="M10.5353 9.46746L9.02334 6.86285H9.02274C8.84454 6.96665 8.67054 7.07885 8.50434 7.20005L6.69894 4.72625C7.07874 4.44905 7.48314 4.20005 7.90074 3.98585L9.27474 6.66785C9.55374 6.52565 9.84295 6.40505 10.1405 6.30785L9.20574 3.44284C9.65275 3.29704 10.1147 3.18544 10.5797 3.11164L11.0603 6.13625C10.8569 6.16865 10.6547 6.21305 10.4555 6.26645L11.238 9.17466C10.9925 9.24066 10.7561 9.33966 10.5353 9.46746Z" fill="black"/>
<path d="M3.97526 7.92188L6.70467 9.31149C6.56427 9.58749 6.44487 9.87669 6.34947 10.1713L3.43526 9.22869C3.57986 8.78109 3.76166 8.34129 3.97526 7.92188Z" fill="black"/>
<path d="M17.1354 9.02035L14.5314 10.5335C14.6598 10.7544 14.7582 10.9908 14.8242 11.2362L17.7324 10.4525C17.7858 10.6518 17.8302 10.854 17.8626 11.0568L20.8872 10.575C20.8134 10.1099 20.7018 9.64795 20.5554 9.20095L17.691 10.1375C17.5938 9.83995 17.4732 9.55075 17.3304 9.27175L20.0118 7.89594C19.7976 7.47834 19.5486 7.07454 19.2708 6.69474L16.7976 8.50134C16.9188 8.66754 17.0316 8.84155 17.1348 9.01975L17.1354 9.02035Z" fill="black"/>
<path d="M14.7658 3.43323C15.2133 3.5778 15.6533 3.75908 16.0732 3.97263L14.6854 6.70264C14.4088 6.56224 14.1196 6.44284 13.825 6.34804L14.7658 3.43323Z" fill="black"/>
<path d="M14.9863 6.80949L13.4569 9.46329C13.6783 9.59109 13.8823 9.74709 14.0641 9.92829L18.3529 5.62508C18.0205 5.29328 17.6587 4.98548 17.2789 4.71008L15.5101 7.14909C15.3415 7.02669 15.1669 6.91329 14.9863 6.80949Z" fill="black"/>
<path d="M9.46443 10.5414L6.81123 9.01079H6.81063C6.91503 8.83079 7.02843 8.65619 7.15083 8.48759L4.71242 6.71758C4.98842 6.33778 5.29622 5.97658 5.62802 5.64418L9.93004 9.93419C9.74884 10.116 9.59224 10.32 9.46443 10.5414Z" fill="black"/>
<path d="M6.21361 10.4576L9.17342 11.2454H9.17282C9.10802 11.4896 9.07502 11.7434 9.07502 12.0002H3C3 11.5328 3.0366 11.063 3.108 10.604L6.08581 11.0678C6.11761 10.8626 6.16021 10.6586 6.21361 10.4576Z" fill="black"/>
<path d="M17.2954 14.6885L20.0249 16.0781C20.2385 15.6587 20.4203 15.2189 20.5649 14.7713L17.6506 13.8287C17.5552 14.1233 17.4358 14.4125 17.2954 14.6885Z" fill="black"/>
<path d="M13.4646 14.5327L14.9766 17.1373L14.9772 17.1379C15.1554 17.0341 15.3294 16.9219 15.4956 16.8007L17.3011 19.2745C16.9213 19.5517 16.5168 19.8007 16.0992 20.0149L14.7252 17.3329C14.4462 17.4751 14.157 17.5957 13.8594 17.6929L14.7942 20.5579C14.3472 20.7037 13.8852 20.8153 13.4202 20.8891L12.9396 17.8639C13.143 17.8315 13.3452 17.7871 13.5444 17.7337L12.762 14.8255C13.0074 14.7595 13.2438 14.6605 13.4646 14.5327Z" fill="black"/>
<path d="M6.86428 14.9796L9.46828 13.4664C9.33988 13.2456 9.24148 13.0092 9.17548 12.7638L6.26727 13.5474C6.21387 13.3482 6.16947 13.146 6.13707 12.9432L3.11186 13.425C3.18566 13.89 3.29726 14.352 3.44367 14.799L6.30807 13.8624C6.40527 14.16 6.52588 14.4492 6.66868 14.7282L3.98727 16.104C4.20147 16.5216 4.45047 16.9254 4.72827 17.3052L7.20148 15.4986C7.08028 15.3324 6.96748 15.1584 6.86428 14.9802V14.9796Z" fill="black"/>
<path d="M7.92679 20.0274C8.34672 20.2409 8.78668 20.4222 9.23419 20.5668L10.175 17.6519C9.8804 17.5571 9.59119 17.4377 9.31459 17.2973L7.92679 20.0274Z" fill="black"/>
<path d="M9.01396 17.1903L10.5432 14.5368C10.3218 14.409 10.1178 14.253 9.93602 14.0718L5.6478 18.375C5.9802 18.7068 6.342 19.0146 6.72181 19.29L8.49061 16.851C8.65907 16.9733 8.83352 17.0866 9.01396 17.1903Z" fill="black"/>
<path d="M14.5361 13.4586L17.1893 14.9892V14.9898C17.0849 15.1698 16.9715 15.3444 16.8491 15.513L19.2875 17.283C19.0115 17.6628 18.7037 18.024 18.3719 18.3564L14.0705 14.0658C14.2517 13.884 14.4083 13.68 14.5361 13.4586Z" fill="black"/>
<path d="M11.2462 14.8273L10.4603 17.7876C10.6613 17.841 10.8653 17.883 11.0705 17.9154L10.6079 20.8932C11.0651 20.964 11.5331 21 11.9993 21H12.0065V14.925H11.9993C11.7433 14.925 11.4902 14.892 11.2462 14.8273Z" fill="black"/>
<path d="M14.8274 12.7548C14.8921 12.5108 14.9251 12.2572 14.9252 12.0006H21.0002C21.0002 12.468 20.9636 12.9378 20.8922 13.3968L17.915 12.9324C17.8832 13.1376 17.8406 13.3416 17.7872 13.5426L14.8274 12.7548Z" fill="black"/>
</svg>