<svg width="16" height="18" viewBox="0 0 16 18" fill="none" xmlns="http://www.w3.org/2000/svg">
<path d="M7.97108 3.49846e-06L10.8125 4.09885L7.97108 5.14333L5.075 4.09885L7.97108 3.49846e-06Z" fill="#D82292"/>
<path d="M5.07428 9.83691L10.8118 9.83691L10.8117 4.09942L7.97035 5.14107L5.07423 4.09941L5.07428 9.83691Z" fill="#EF6FC4"/>
<path d="M10.8121 4.09942L10.8121 9.83691L7.9707 8.79871L7.97072 5.14135L10.8121 4.09942Z" fill="#FF8ABC"/>
<path d="M7.97031 13.9336L5.07423 9.836L7.97031 8.7978L10.8117 9.836L7.97031 13.9336Z" fill="#D82292"/>
<path d="M8.9255 17.1538L9.45419 13.9218L11.0881 14.0653L11.8265 15.5829L8.9255 17.1538Z" fill="#E748B1"/>
<path d="M14.2405 12.1368L11.8944 10.478L9.48525 13.9227L11.0888 14.0657L11.8272 15.5833L14.2405 12.1368Z" fill="#FF8ABC"/>
<path d="M9.45412 13.9217L11.8674 10.4751L12.6238 11.8719L11.0881 14.0652L9.45412 13.9217Z" fill="#DA33A2"/>
<path d="M14.7545 8.86635L14.2393 12.1366L12.6233 11.8723L11.867 10.4755L14.7545 8.86635Z" fill="#E748B1"/>
<path d="M7.02176 17.1538L6.49308 13.9218L4.85917 14.0653L4.12076 15.5829L7.02176 17.1538Z" fill="#D82292"/>
<path d="M1.70676 12.1368L4.05282 10.478L6.46201 13.9227L4.8585 14.0657L4.12009 15.5833L1.70676 12.1368Z" fill="#E748B1"/>
<path d="M6.49315 13.9217L4.07982 10.4751L3.32347 11.8719L4.85921 14.0652L6.49315 13.9217Z" fill="#DA33A2"/>
<path d="M1.19281 8.86635L1.70795 12.1366L3.32393 11.8723L4.08028 10.4755L1.19281 8.86635Z" fill="#FF8ABC"/>
</svg>
