<svg width="93" height="93" viewBox="0 0 93 93" fill="none" xmlns="http://www.w3.org/2000/svg">
    <path
        d="M46.3665 0.847386H46.3683C71.5127 0.847386 91.8962 21.2309 91.8962 46.3753V46.3771C91.8962 71.5215 71.5127 91.905 46.3683 91.905H46.3665C21.2221 91.905 0.838597 71.5215 0.838597 46.3771V46.3753C0.838597 21.2309 21.2221 0.847386 46.3665 0.847386Z"
        fill="black" stroke="black" stroke-width="1.67719" />
    <path fill-rule="evenodd" clip-rule="evenodd"
        d="M32.8579 9.92773C18.0622 15.4053 7.51611 29.6425 7.51611 46.3428C7.51611 63.0431 18.0622 77.2802 32.8579 82.7578V78.9285C20.0743 73.6357 11.081 61.0395 11.081 46.3428C11.081 31.6461 20.0743 19.0498 32.8579 13.7571V9.92773ZM59.8118 13.7575V9.92814C74.6069 15.406 85.1525 29.6429 85.1525 46.3428C85.1525 63.0427 74.6069 77.2795 59.8118 82.7574V78.928C72.5948 73.635 81.5876 61.0391 81.5876 46.3428C81.5876 31.6465 72.5948 19.0505 59.8118 13.7575Z"
        fill="white" />
    <path fill-rule="evenodd" clip-rule="evenodd"
        d="M46.3365 13.7539L48.3698 17.2473L60.8147 38.6288H68.6843V42.1938H24.0039V38.6288H31.8552L44.3029 17.2471L46.3365 13.7539ZM46.3361 23.1077L55.37 38.6288H37.3002L46.3361 23.1077ZM60.8368 53.8392H68.6843V50.2743H24.0039V53.8392H31.8331L44.3029 75.2589L46.3365 78.752L48.3698 75.2587L60.8368 53.8392ZM55.392 53.8392H37.2782L46.3361 69.3982L55.392 53.8392Z"
        fill="white" />
</svg>
    