<?xml version="1.0" encoding="utf-8"?>
<!-- Generator: Adobe Illustrator 27.9.0, SVG Export Plug-In . SVG Version: 6.00 Build 0)  -->
<svg version="1.1" id="Layer_1" xmlns="http://www.w3.org/2000/svg" xmlns:xlink="http://www.w3.org/1999/xlink" x="0px" y="0px"
	 viewBox="0 0 1915 1077.2" style="enable-background:new 0 0 1915 1077.2;" xml:space="preserve">
<style type="text/css">
	.st0{fill:#FF596E;}
	.st1{fill:#800010;}
</style>
<g>
	<g>
		<polygon class="st0" points="895.1,511.7 957.5,482.7 957.5,403.6 		"/>
		<polygon class="st0" points="957.5,482.7 957.5,545.8 1019.9,511.7 		"/>
		<polygon class="st1" points="957.5,482.7 957.5,545.8 895.1,511.7 		"/>
		<polygon class="st1" points="1019.9,511.7 957.5,482.7 957.5,403.6 		"/>
		<polygon class="st0" points="957.5,570.1 957.5,637.3 893.9,535.4 		"/>
		<polygon class="st1" points="957.5,570.1 957.5,637.3 1021.1,535.4 		"/>
		<polygon class="st1" points="1031.6,550.7 1046,591.2 1077.6,538.5 		"/>
		<polygon class="st0" points="1046,591.2 1077.6,581.8 1077.6,538.5 		"/>
		<polygon class="st1" points="1077.6,581.8 1031.6,658.6 996.7,673.6 1046,591.2 		"/>
		<polygon class="st0" points="837.4,581.8 883.4,658.6 918.3,673.6 869,591.2 		"/>
		<polygon class="st1" points="957.5,673.6 883.4,550.7 869,591.2 918.3,673.6 		"/>
		<polygon class="st0" points="883.4,550.7 869,591.2 837.4,538.5 		"/>
		<polygon class="st1" points="869,591.2 837.4,581.8 837.4,538.5 		"/>
		<polygon class="st0" points="957.5,673.6 1031.6,550.7 1046,591.2 996.7,673.6 		"/>
	</g>
</g>
</svg>
