<svg id="Layer_1" data-name="Layer 1" xmlns="http://www.w3.org/2000/svg" viewBox="0 0 400 400"><defs><style>.cls-1{fill:#00cba8;}.cls-2{fill:#0db1f9;}</style></defs><path class="cls-1" d="M130.32,129.21H263.07a138.68,138.68,0,0,1,44.24,7.19C307.94,61,246.48,0,170.4,0H37.65A37.41,37.41,0,0,0,.24,37.41V233.14a37.41,37.41,0,0,0,37.41,37.41H92.91V166.62A37.41,37.41,0,0,1,130.32,129.21Z"/><path class="cls-2" d="M307.31,136.4c0,1.59,0,3.18-.11,4.77A135.28,135.28,0,0,1,172.05,270.55H92.91v91.8a37.41,37.41,0,0,0,37.41,37.41h134.4A135.28,135.28,0,0,0,399.87,270.38C402.54,208.24,363,155.12,307.31,136.4Z"/></svg>